<svg xmlns="http://www.w3.org/2000/svg" width="39.998" height="50" viewBox="0 0 39.998 50">
  <g id="bot" transform="translate(-4.004 -2)">
    <g id="ic_fluent_bot_24_regular" transform="translate(4.004 2)">
      <path id="_-Color" data-name="🎨-Color" d="M38.376,32A5.625,5.625,0,0,1,44,37.623v2.263A9.375,9.375,0,0,1,40.733,47c-3.914,3.36-9.514,5-16.739,5s-12.82-1.641-16.727-5A9.375,9.375,0,0,1,4,39.891V37.623A5.625,5.625,0,0,1,9.628,32Zm0,3.75H9.628a1.875,1.875,0,0,0-1.875,1.875v2.268a5.625,5.625,0,0,0,1.958,4.265c3.145,2.7,7.885,4.094,14.283,4.094s11.144-1.391,14.3-4.1a5.625,5.625,0,0,0,1.961-4.268V37.623A1.875,1.875,0,0,0,38.376,35.748ZM23.741,2.018,23.995,2a1.876,1.876,0,0,1,1.858,1.621l.017.254,0,1.872h8.751a5.625,5.625,0,0,1,5.625,5.625V22.635a5.625,5.625,0,0,1-5.625,5.625H13.369a5.625,5.625,0,0,1-5.625-5.625V11.374a5.625,5.625,0,0,1,5.625-5.625h8.748l0-1.872a1.875,1.875,0,0,1,1.621-1.858L23.995,2ZM34.619,9.5H13.369a1.875,1.875,0,0,0-1.875,1.875V22.635a1.875,1.875,0,0,0,1.875,1.875H34.619a1.875,1.875,0,0,0,1.875-1.875V11.374A1.875,1.875,0,0,0,34.619,9.5Zm-16.251,3.75a3.123,3.123,0,1,1-3.123,3.123A3.123,3.123,0,0,1,18.367,13.249Zm11.231,0a3.123,3.123,0,1,1-3.123,3.123A3.123,3.123,0,0,1,29.6,13.249Z" transform="translate(-4.004 -2)" fill="#377dff"/>
    </g>
  </g>
</svg>
