<svg xmlns="http://www.w3.org/2000/svg" width="211" height="263.766" viewBox="0 0 211 263.766">
  <g id="bots" transform="translate(-4.004 -2)">
    <g id="ic_fluent_bot_24_regular" transform="translate(4.004 2)">
      <path id="_-Color" data-name="🎨-Color" d="M185.331,160.247A29.673,29.673,0,0,1,215,189.92v11.936a49.456,49.456,0,0,1-17.241,37.523c-20.646,17.723-50.19,26.386-88.3,26.386s-67.632-8.659-88.243-26.38A49.455,49.455,0,0,1,4,201.885V189.92a29.673,29.673,0,0,1,29.673-29.673Zm0,19.782H33.676a9.891,9.891,0,0,0-9.891,9.891v11.965a29.675,29.675,0,0,0,10.328,22.5c16.591,14.264,41.6,21.6,75.346,21.6s58.789-7.338,75.418-21.614a29.675,29.675,0,0,0,10.345-22.514V189.92A9.891,9.891,0,0,0,185.331,180.029ZM108.123,2.091,109.464,2a9.894,9.894,0,0,1,9.8,8.549l.09,1.342-.011,9.878,46.164.007a29.673,29.673,0,0,1,29.673,29.673v59.406a29.673,29.673,0,0,1-29.673,29.673H53.411a29.673,29.673,0,0,1-29.673-29.673V51.449A29.673,29.673,0,0,1,53.411,21.776l46.151-.007.011-9.878a9.893,9.893,0,0,1,8.55-9.8L109.464,2Zm57.386,39.467H53.411a9.891,9.891,0,0,0-9.891,9.891v59.406a9.891,9.891,0,0,0,9.891,9.891h112.1a9.891,9.891,0,0,0,9.891-9.891V51.449A9.891,9.891,0,0,0,165.508,41.558ZM79.778,61.34A16.475,16.475,0,1,1,63.3,77.815,16.475,16.475,0,0,1,79.778,61.34Zm59.249,0a16.475,16.475,0,1,1-16.476,16.475A16.475,16.475,0,0,1,139.027,61.34Z" transform="translate(-4.004 -2)" fill="#377dff"/>
    </g>
  </g>
</svg>
