<svg id="chat" xmlns="http://www.w3.org/2000/svg" width="96" height="96" viewBox="0 0 96 96">
  <rect id="surface" width="96" height="96" rx="48" fill="rgba(69,121,245,0.03)"/>
  <g id="icon">
    <rect id="frame" width="96" height="96" fill="none"/>
    <g id="_-Product-Icons" data-name="ðŸ”-Product-Icons" transform="translate(28.832 24)">
      <g id="ic_fluent_bot_24_regular">
        <path id="_-Color" data-name="ðŸŽ¨-Color" d="M37,30.8a5.4,5.4,0,0,1,5.4,5.4V38.37A9,9,0,0,1,39.264,45.2C35.507,48.424,30.13,50,23.194,50S10.887,48.425,7.136,45.2A9,9,0,0,1,4,38.375V36.2a5.4,5.4,0,0,1,5.4-5.4Zm0,3.6H9.4a1.8,1.8,0,0,0-1.8,1.8v2.177a5.4,5.4,0,0,0,1.88,4.095c3.019,2.6,7.57,3.93,13.711,3.93s10.7-1.335,13.724-3.933a5.4,5.4,0,0,0,1.882-4.1V36.2A1.8,1.8,0,0,0,37,34.4ZM22.951,2.017,23.2,2a1.8,1.8,0,0,1,1.784,1.556L25,3.8l0,1.8h8.4a5.4,5.4,0,0,1,5.4,5.4V21.81a5.4,5.4,0,0,1-5.4,5.4h-20.4a5.4,5.4,0,0,1-5.4-5.4V11a5.4,5.4,0,0,1,5.4-5.4h8.4l0-1.8a1.8,1.8,0,0,1,1.556-1.784L23.2,2ZM33.394,9.2h-20.4a1.8,1.8,0,0,0-1.8,1.8V21.81a1.8,1.8,0,0,0,1.8,1.8h20.4a1.8,1.8,0,0,0,1.8-1.8V11A1.8,1.8,0,0,0,33.394,9.2Zm-15.6,3.6a3,3,0,1,1-3,3A3,3,0,0,1,17.793,12.8Zm10.782,0a3,3,0,1,1-3,3A3,3,0,0,1,28.575,12.8Z" transform="translate(-4.004 -2)" fill="#377dff"/>
      </g>
    </g>
  </g>
</svg>
