<svg xmlns="http://www.w3.org/2000/svg" width="36.003" height="45" viewBox="0 0 36.003 45">
  <g id="document" transform="translate(-4 -2.001)">
    <path id="Path_357" data-name="Path 357" d="M34.94,2a5.063,5.063,0,0,1,5.051,4.716L40,7.064V41.938a5.063,5.063,0,0,1-4.716,5.051L34.94,47H9.063a5.063,5.063,0,0,1-5.051-4.716L4,41.938V7.064A5.063,5.063,0,0,1,8.716,2.013L9.063,2Zm0,3.375H9.063A1.688,1.688,0,0,0,7.391,6.835l-.015.229V41.938A1.688,1.688,0,0,0,8.834,43.61l.229.015H34.94a1.688,1.688,0,0,0,1.672-1.459l.015-.229V7.064a1.688,1.688,0,0,0-1.459-1.672Z" transform="translate(0)" fill="#377dff"/>
    <path id="Path_358" data-name="Path 358" d="M7,16.688A1.688,1.688,0,0,1,8.688,15H27.815a1.688,1.688,0,1,1,0,3.375H8.688A1.688,1.688,0,0,1,7,16.688Z" transform="translate(3.751 16.252)" fill="#377dff"/>
    <path id="Path_359" data-name="Path 359" d="M7,8.688A1.688,1.688,0,0,1,8.688,7H27.815a1.688,1.688,0,0,1,0,3.375H8.688A1.688,1.688,0,0,1,7,8.688Z" transform="translate(3.751 6.25)" fill="#377dff"/>
    <path id="Path_360" data-name="Path 360" d="M7,12.688A1.688,1.688,0,0,1,8.688,11H27.815a1.688,1.688,0,1,1,0,3.375H8.688A1.688,1.688,0,0,1,7,12.688Z" transform="translate(3.751 11.251)" fill="#377dff"/>
  </g>
</svg>
