<svg xmlns="http://www.w3.org/2000/svg" xmlns:xlink="http://www.w3.org/1999/xlink" width="443.023" height="532.16" viewBox="0 0 443.023 532.16">
  <defs>
    <linearGradient id="linear-gradient" x1="0.829" y1="0.53" x2="0.705" y2="0.457" gradientUnits="objectBoundingBox">
      <stop offset="0" stop-color="#302624" stop-opacity="0.502"/>
      <stop offset="0.242" stop-color="#302624" stop-opacity="0.361"/>
      <stop offset="0.995" stop-color="#302624" stop-opacity="0"/>
    </linearGradient>
    <linearGradient id="linear-gradient-2" x1="0.523" y1="0.157" x2="0.466" y2="0.798" xlink:href="#linear-gradient"/>
    <linearGradient id="linear-gradient-3" x1="0.377" y1="0.178" x2="-0.386" y2="1.011" gradientUnits="objectBoundingBox">
      <stop offset="0" stop-color="#cfd4d8"/>
      <stop offset="0.326" stop-color="#cfd4d8" stop-opacity="0.631"/>
      <stop offset="0.652" stop-color="#cfd4d8" stop-opacity="0.29"/>
      <stop offset="0.884" stop-color="#cfd4d8" stop-opacity="0.082"/>
      <stop offset="1" stop-color="#cfd4d8" stop-opacity="0"/>
    </linearGradient>
    <radialGradient id="radial-gradient" cx="0.5" cy="0.5" r="0.5" gradientTransform="matrix(0.999, 0.045, -0.045, 0.999, 679.554, 15.445)" gradientUnits="objectBoundingBox">
      <stop offset="0" stop-color="#f69d7d" stop-opacity="0.702"/>
      <stop offset="0.141" stop-color="#f69d7d" stop-opacity="0.627"/>
      <stop offset="0.422" stop-color="#f69d7d" stop-opacity="0.443"/>
      <stop offset="0.813" stop-color="#f69d7d" stop-opacity="0.149"/>
      <stop offset="1" stop-color="#f69d7d" stop-opacity="0"/>
    </radialGradient>
    <radialGradient id="radial-gradient-2" cx="0.5" cy="0.5" r="0.5" gradientTransform="matrix(0.999, 0.045, -0.045, 0.999, 688.598, 15.65)" xlink:href="#radial-gradient"/>
    <linearGradient id="linear-gradient-4" x1="0.453" y1="1.176" x2="0.516" y2="0.309" gradientUnits="objectBoundingBox">
      <stop offset="0" stop-color="#f8e8d8" stop-opacity="0.2"/>
      <stop offset="0.408" stop-color="#f8e8d8" stop-opacity="0.129"/>
      <stop offset="1" stop-color="#f8e8d8" stop-opacity="0"/>
    </linearGradient>
  </defs>
  <g id="f1" transform="translate(0 0)">
    <path id="Path_1" data-name="Path 1" d="M544.467,164.635s-4.822-8.358-9-11.381-10.849-2.429-16.039-8.134-13.264-.084-13.409-10.891,4.616-7.915-.864-13.04,4.91-13.792,4.91-13.792S482.492,94.741,485.23,88.98s23.72,7.587,50.79,11.376c0,0,10.8-5.634,13.586-2.023s.2,35.9.2,35.9l10.956,20Z" transform="translate(-485.039 116.609)" fill="#d1e0fb"/>
    <path id="Path_2" data-name="Path 2" d="M514.791,107.651l-5.98-9.559s-18.665,10.4-23.772,24.837l9.335,6.354Z" transform="translate(-439.071 155.292)" fill="#fff"/>
    <path id="Path_3" data-name="Path 3" d="M508.048,90.3c-9.966,8.695-16.927,19.968-14.311,22.669s14.311-5.817,14.311-5.817l-1.313,9.727s-11.9,6.457-15.9-2.785S508.048,90.3,508.048,90.3Z" transform="translate(-457.067 126.668)" fill="#588def"/>
    <path id="Path_4" data-name="Path 4" d="M590.049,91.1c-3.649,7.929-38.035,92.372-38.035,92.372s-9.821-10.83-9.031,0L487.908,126.96s-25.393,8.62-27.425,31.013c0,0,68.432,94.1,93.264,96.646s47.361-67.329,47.361-67.329Z" transform="translate(-410.66 129.624)" fill="#2465de"/>
    <path id="Path_5" data-name="Path 5" d="M590.049,91.1c-3.649,7.929-38.035,92.372-38.035,92.372s-9.821-10.83-9.031,0L487.908,126.96s-25.393,8.62-27.425,31.013c0,0,68.432,94.1,93.264,96.646s47.361-67.329,47.361-67.329Z" transform="translate(-410.66 129.624)" fill="url(#linear-gradient)"/>
    <path id="Path_6" data-name="Path 6" d="M437.063,124.689s-6.737-.369-9.629-3.911,6.578-32.555,6.578-32.555-9-7.774-9.134-18.684,7.092-16.534,18.333-15.843,27.462,15.637,27.462,15.637l-8.241,4.247s-2.658,24.743-6.172,31.1S437.063,124.689,437.063,124.689Z" transform="translate(-113.873 -7.939)" fill="#1e54b8"/>
    <path id="Path_7" data-name="Path 7" d="M451.359,62.566c-3.3,15.451-14.213,53.6-14.213,53.6l-9.708-11.063,4.873-47.693Z" transform="translate(-106.523 5.916)" fill="#1e54b8"/>
    <path id="Path_11" data-name="Path 11" d="M465.145,141.745s-10.417,112.922-11.72,128.321H522.56l11.774-51.372,7.891-2.191,4.665,53.564h60.476c2.4-11.47,2.114-142.889,2.114-142.889Z" transform="translate(-283.103 262.094)" fill="#2465de"/>
    <path id="Path_12" data-name="Path 12" d="M431.385,170.407c29.056,10.068,94.82,25.084,148.334,3.135.079-13.75-.122-31.98-.079-41.642L433.8,144.575C433.137,153.032,432.305,158.671,431.385,170.407Z" transform="translate(-253.342 279.437)" fill="#1e54b8"/>
    <g id="Group_1" data-name="Group 1" transform="translate(186.845 381.759)">
      <path id="Path_13" data-name="Path 13" d="M433.011,132.32c1.131-4.144,2.042-6.751,2.042-6.751l128.758,5.284s.453,2.63,1.154,7.125c-.635.883-1.154,1.546-1.154,1.546C506.353,162.978,464.744,163,433.011,132.32Z" transform="translate(-433.011 -125.569)" fill="#330e00"/>
    </g>
    <path id="Path_14" data-name="Path 14" d="M604.184,115.943l-22.571,82.915,11.475,77.468s-101.931,38.741-165.9-3L440.33,100.212Z" transform="translate(-258.199 163.077)" fill="#2465de"/>
    <g id="Group_3" data-name="Group 3" transform="translate(175.538 194.175)">
      <g id="Group_2" data-name="Group 2">
        <path id="Path_15" data-name="Path 15" d="M445.7,97.477c-13.661,5.751-32.845,17.268-15.993,57.055l5.864,122.45s-6.541,18.871-2.415,22.875c31.742,30.789,73.389,30.789,130.911,7.307,0,0,3.028-3.859,3.42-5.41,2.107-8.321-4.92-31.551-4.92-31.551l32.149-99.94s31.691-43.133,10.708-58.775C572.417,86.881,499.762,74.719,445.7,97.477Z" transform="translate(-423.116 -85.419)" fill="#2465de"/>
      </g>
    </g>
    <path id="Path_16" data-name="Path 16" d="M426.374,269.937,434,169.469a198.559,198.559,0,0,1,34.643,58.817A245,245,0,0,0,554.6,153.808L529.454,221.03c21.739-25.509,56-94.39,77.734-119.895L580.8,195.469l11.475,77.468S490.34,311.677,426.374,269.937Z" transform="translate(-257.381 166.467)" fill="url(#linear-gradient-2)"/>
    <path id="Path_17" data-name="Path 17" d="M458.5,84.9s-12.685-.547-14.988.878-8.078,18.081-9.236,20.711,15.418,18.132,15.418,18.132-13.68,22.459-13.105,24.272,24.832,99.987,24.832,99.987,58.817-87.728,60.018-92.087-5.634-26.93-5.634-26.93,17.417-12.834,18.478-15.637,3.284-20.693,0-22.963c-2.023-1.4-13.731-4.032-13.731-4.032Z" transform="translate(-222.846 106.49)" fill="#1e56bf"/>
    <path id="Path_18" data-name="Path 18" d="M501.6,91.5h0s-18.03,46.524-33.905,87.494c-12.488,32.228-26.28-1.486-26.28-1.486l-3.892-92.376c.864-.061,2.668-.29,3.528-.336Z" transform="translate(-203.899 106.465)" fill="#fff"/>
    <path id="Path_19" data-name="Path 19" d="M442.681,114.636c-3.607-.855-3.775-12.157-3.775-12.157l-.724-17.1.117-.257c.9-.07,2.579-.28,3.4-.327l55.8,6.181c-.2.663,2.037,5.317,1.635,6.62-3.233,9.517-13.652,23.2-15.74,23.538-2.453.388-8.695-6.76-9.531-9.1-1.285,1.154-3.481,4.616-4.761,5.775-.682,16.628-.079,38.517.187,58.737-9.667,24.944-18.688,48.216-22.575,58.256-.705.934-1.416,1.817-2.126,2.672l-2.083-49.431q9.44-35.7,18.884-71.394c-2-2.733-4.583-4.77-6.583-7.508C451.474,112.393,447.334,114.631,442.681,114.636Z" transform="translate(-204.546 106.465)" fill="url(#linear-gradient-3)"/>
    <g id="Group_5" data-name="Group 5" transform="translate(251.044 132.093)">
      <g id="Group_4" data-name="Group 4" transform="translate(0)">
        <path id="Path_20" data-name="Path 20" d="M434.587,140.712c5.415,3.126,16.6,4.761,22.678,4.906,9.031.248,5.4-5.037,8.414-5.84l29.3-67.647-53,23.884-.122,2.247Z" transform="translate(-434.587 -72.131)" fill="#d1e0fb"/>
      </g>
    </g>
    <g id="Group_8" data-name="Group 8" transform="translate(254.474 132.093)">
      <g id="Group_7" data-name="Group 7" transform="translate(0)">
        <g id="Group_6" data-name="Group 6">
          <path id="Path_21" data-name="Path 21" d="M445.721,119.665a53.079,53.079,0,0,0,16.273-4.747,110.813,110.813,0,0,0,14.446-7.905l15.11-34.882-53,23.884-.121,2.247-3.84,22.431C438.292,120.323,442.016,120.1,445.721,119.665Z" transform="translate(-434.587 -72.131)" fill="#588def"/>
        </g>
      </g>
    </g>
    <path id="Path_22" data-name="Path 22" d="M442.843,168.706l18.866-63.676-8.251-9.265,14.012-8.573,10.718,9.881-9.975,8.835a591.35,591.35,0,0,1,.915,64.278c-12.493,32.228-23.65,61.022-23.65,61.022Z" transform="translate(-205.325 115.267)" fill="#0f49b4"/>
    <g id="Group_10" data-name="Group 10" transform="translate(232.072 180.654)">
      <g id="Group_9" data-name="Group 9" transform="translate(0)">
        <path id="Path_23" data-name="Path 23" d="M494.352,84.464s-21.309,20.4-26.771,19.515-8.316-21.454-8.316-21.454-19.464,5.6-21.842,8.312,3.434,29.355,6,30.649c5.387,2.719,21.618-15.4,24.575-13.091s11.316,17.787,14.077,17.478,24.7-21.954,23.463-29.915S494.352,84.464,494.352,84.464Z" transform="translate(-436.863 -82.525)" fill="#fff"/>
      </g>
    </g>
    <path id="Path_24" data-name="Path 24" d="M531.526,112.336s18.3-4.177,15.768,17.679-18.361,22.286-23.029,23.23c0,0-8.708,38.918-56.719,35.19s-40.138-40.9-39.783-65.549-2.4-67.455,29.023-70.609C488.487,49.095,534.306,51.183,531.526,112.336Z" transform="translate(-201.015 -16.261)" fill="#d1e0fb"/>
    <g id="Group_11" data-name="Group 11" transform="translate(248.937 129.878)">
      <path id="Path_25" data-name="Path 25" d="M471.583,71.657a50.417,50.417,0,0,1-30.177,6.737c2.985,7.882,6.144,13.315,17.745,11.465C468.653,88.346,473.652,79.936,471.583,71.657Z" transform="translate(-441.406 -71.657)" fill="#b4ccfb"/>
      <path id="Path_26" data-name="Path 26" d="M465.1,72.449c.626,6.882-4.616,13.862-12.7,15.151a19.057,19.057,0,0,1-8.471-.808q-1.268-4.009-2.532-8.017,10.884-3.013,21.772-6.022A6.816,6.816,0,0,1,465.1,72.449Z" transform="translate(-434.479 -68.754)" fill="#fff"/>
      <path id="Path_27" data-name="Path 27" d="M463.9,72.942a22.3,22.3,0,0,1-10.792,6.653,43.562,43.562,0,0,1-10.367,1.546c-.332-1.056-.668-2.112-1-3.168q9.594-2.656,19.188-5.308Z" transform="translate(-434.82 -67.952)" fill="#cfd4d8"/>
      <path id="Path_28" data-name="Path 28" d="M441.4,78.618a23.014,23.014,0,0,0,1.448,3.607c.467.645,14.049,1.864,25.528-5.962a12.67,12.67,0,0,0-.434-4.607C461.226,75.684,449.35,78.581,441.4,78.618Z" transform="translate(-437.767 -71.657)" fill="#fff"/>
    </g>
    <g id="Group_12" data-name="Group 12" transform="translate(255.221 105.219)">
      <path id="Path_29" data-name="Path 29" d="M450.251,91.687c.037-.463-1.532-.883-2.359-2.925a5.918,5.918,0,0,1-.3-3.654,22.275,22.275,0,0,1,1.822-4.845c3.35-7.279,5.406-13.493,4.588-13.867s-4.2,5.219-7.559,12.5a18.182,18.182,0,0,0-1.836,5.8,8.495,8.495,0,0,0,.192,2.92,6.959,6.959,0,0,0,1.1,2.322A4.866,4.866,0,0,0,448.91,92C449.783,92.131,450.241,91.893,450.251,91.687Z" transform="translate(-444.56 -66.379)" fill="#588def"/>
    </g>
    <g id="Group_13" data-name="Group 13" transform="translate(274.852 86.643)">
      <path id="Path_30" data-name="Path 30" d="M437.36,67.267c.271.388,1.631-.154,3.766-.724A21.985,21.985,0,0,1,457.5,68.107c1,.5,1.808.906,2.387,1.2.6.285,1.014.4,1.173.234s.061-.57-.3-1.163a9.85,9.85,0,0,0-1.981-2.2,16.761,16.761,0,0,0-18.539-1.771C438.056,65.645,437.112,66.925,437.36,67.267Z" transform="translate(-437.321 -62.403)" fill="#1e54b8"/>
    </g>
    <g id="Group_14" data-name="Group 14" transform="translate(232.604 83.566)">
      <path id="Path_31" data-name="Path 31" d="M470.1,68.877c.309-.29-.374-1.719-2.28-3.355a16.751,16.751,0,0,0-18.539-1.78,10.069,10.069,0,0,0-2.359,1.775c-.472.519-.635.9-.518,1.089s.547.159,1.191-.009c.626-.173,1.5-.416,2.574-.715a21.968,21.968,0,0,1,16.371,1.57C468.528,68.419,469.757,69.208,470.1,68.877Z" transform="translate(-446.365 -61.744)" fill="#1e54b8"/>
    </g>
    <path id="Path_32" data-name="Path 32" d="M434.973,81.8a12.878,12.878,0,1,0,13.451-12.283A12.875,12.875,0,0,0,434.973,81.8Z" transform="translate(-151.018 50.315)" fill="url(#radial-gradient)"/>
    <path id="Path_33" data-name="Path 33" d="M447.44,81.229A12.878,12.878,0,1,0,460.89,68.951,12.88,12.88,0,0,0,447.44,81.229Z" transform="translate(-221.732 48.233)" fill="url(#radial-gradient-2)"/>
    <path id="Path_34" data-name="Path 34" d="M446.541,71.264a6.449,6.449,0,1,0,6.737-6.148A6.45,6.45,0,0,0,446.541,71.264Z" transform="translate(-203.818 34.174)" fill="#1e54b8"/>
    <path id="Path_35" data-name="Path 35" d="M441.494,70.339c1.673,5.784-.7,11.881-3.032,17.431-.691,1.649-1.458,3.387-2.934,4.4s-3.887.86-4.663-.752c-.752-1.561.355-3.317,1.224-4.817s1.355-3.742-.1-4.681c-.677-.435-1.565-.4-2.28-.776-1.546-.818-1.537-3.027-1.14-4.737a26.612,26.612,0,0,1,2.6-6.765c1.154-2.084,2.967-4.21,5.345-4.172C439.009,65.508,440.8,67.947,441.494,70.339Z" transform="translate(-101.466 35.487)" fill="#588def"/>
    <g id="Group_16" data-name="Group 16" transform="translate(303.549 52.513)">
      <path id="Path_39" data-name="Path 39" d="M456.232,98.66s-7.527,5.536-9.6,17.777H441.1V95.292s-16.749-4.607-10.4-29.214S462,65.914,462,65.914Z" transform="translate(-429.27 -55.098)" fill="#1e54b8"/>
    </g>
    <path id="Path_40" data-name="Path 40" d="M481.936,147.919c-2.906-6.083-6.036-12.049-9.508-17.843-2.135,1.617-4.191,3.168-6.027,4.551-6.475,4.878-10.909,8.157-11.774,8.625-4.074,2.271-20.515,1.584-21.389,12.474,0,0-4.728,5.373-8.709,10.508s10.718,5.737,10.83,12.012,10.7,3.331,12.245,9.694c1.561,6.382,1.827,5.84,7.158,6.018,5.312.173,10.652-3.831,11.479-12.853,0,0,11.035-.322,13.5-10.106.075-.313.136-.621.182-.92C481.118,162.346,473.61,154.231,481.936,147.919Z" transform="translate(-120.327 272.74)" fill="#d1e0fb"/>
    <path id="Path_41" data-name="Path 41" d="M448.321,152.42l-6.382,6.737s-13.255-7.344-20.188-22.057l7.125-8.938Z" transform="translate(-76.915 265.715)" fill="#fff"/>
    <path id="Path_42" data-name="Path 42" d="M437.608,294.281c-14.39-8.681-27.149-29.43-27.149-29.43l38.7-58.933-42.74-54.869L422.321,91C448,112.355,505.76,190.556,507.493,211.454,508.11,218.911,437.608,294.281,437.608,294.281Z" transform="translate(-64.473 129.246)" fill="#2465de"/>
    <path id="Path_43" data-name="Path 43" d="M497.891,101.1a42.053,42.053,0,0,0,40.278,2.752c22.407-10.143,22.3-25.131,22.3-25.131s-19.6-.78-32.91-15.544-52.08-29.747-81.327-9.461S426.179,103.781,443.7,108.8s27.439-7.139,31.873-4.453S486.991,109.939,497.891,101.1Z" transform="translate(-215.174 -43.858)" fill="#2465de"/>
    <path id="Path_44" data-name="Path 44" d="M426.646,53.176a48.508,48.508,0,0,1,6.429-6.48,200.9,200.9,0,0,0,114.961,31.92,30.286,30.286,0,0,1-2.686,3.583,70.992,70.992,0,0,1,9.62,5.966,137.807,137.807,0,0,1-50.841,2.771A138.677,138.677,0,0,1,426.646,53.176Z" transform="translate(-206.433 -33.438)" fill="url(#linear-gradient-4)"/>
    <g id="Group_17" data-name="Group 17" transform="translate(273.415 102.329)">
      <path id="Path_45" data-name="Path 45" d="M438.29,71.23c.313.364,1.477-.164,3.271-.79a27.45,27.45,0,0,1,3.168-.9,26.092,26.092,0,0,1,3.943-.5,25.6,25.6,0,0,1,3.967.206,27.111,27.111,0,0,1,3.228.659c1.771.453,3.084.958,3.322.542.206-.36-.453-1.462-2.4-2.658a13.425,13.425,0,0,0-3.546-1.5,15.985,15.985,0,0,0-9.344.35,13.521,13.521,0,0,0-3.425,1.757C438.7,69.692,438.015,70.917,438.29,71.23Z" transform="translate(-438.231 -65.76)" fill="#1e54b8"/>
    </g>
  </g>
</svg>
