<svg xmlns="http://www.w3.org/2000/svg" width="363.629" height="480.707" viewBox="0 0 363.629 480.707">
  <g id="f2" transform="translate(4.224 -76.729)">
    <g id="Group_22" data-name="Group 22" transform="translate(194.253 258.227)">
      <g id="Group_19" data-name="Group 19" transform="translate(0 0)">
        <circle id="Ellipse_1" data-name="Ellipse 1" cx="21.329" cy="21.329" r="21.329" fill="#fbc0a4"/>
        <circle id="Ellipse_2" data-name="Ellipse 2" cx="18.08" cy="18.08" r="18.08" transform="translate(14.783 104.936)" fill="#fbc0a4"/>
        <path id="Path_46" data-name="Path 46" d="M114.283,160.421c7.5,34.655,13.611,88.585,14.092,96.353h36.16s-.166-77.651-9.109-107.543Z" transform="translate(-113.592 -133.758)" fill="#fbc0a4"/>
      </g>
      <g id="Group_20" data-name="Group 20" transform="translate(48.355 201.503)">
        <path id="Path_47" data-name="Path 47" d="M132.133,229.448a9.375,9.375,0,1,0,6.71-11.437A9.375,9.375,0,0,0,132.133,229.448Z" transform="translate(-131.828 -217.706)" fill="#fbc0a4"/>
      </g>
      <g id="Group_21" data-name="Group 21" transform="translate(14.779 104.932)">
        <path id="Path_49" data-name="Path 49" d="M120.056,204.8A18.079,18.079,0,1,0,133,182.747,18.079,18.079,0,0,0,120.056,204.8Z" transform="translate(-119.469 -182.16)" fill="#fbc0a4"/>
        <path id="Path_50" data-name="Path 50" d="M132.133,229.448a9.375,9.375,0,1,0,6.71-11.437A9.375,9.375,0,0,0,132.133,229.448Z" transform="translate(-98.252 -121.135)" fill="#fbc0a4"/>
        <path id="Path_51" data-name="Path 51" d="M152.979,281.924c-2.01-11.918-12.709-33.462-21.536-53.947-8.5-19.735-11.758-31.729-11.758-31.729l34.992-9.109s16.1,80.411,16.743,92.2Z" transform="translate(-119.098 -173.611)" fill="#fbc0a4"/>
      </g>
    </g>
    <path id="Path_52" data-name="Path 52" d="M127.433,248.282c-2.521-17.681-7.759-55.191-12.714-78.082l.008,0a21.311,21.311,0,0,1,41.126-11.185l.008,0c5.306,17.732,9.109,45.106,13.717,77.232C158.2,243.039,131.2,247.7,127.433,248.282Z" transform="translate(80.224 114.689)" fill="#649aff"/>
    <g id="Group_25" data-name="Group 25" transform="translate(84.947 424.225)">
      <g id="Group_23" data-name="Group 23" transform="translate(0 0)">
        <circle id="Ellipse_3" data-name="Ellipse 3" cx="31.117" cy="31.117" r="31.117" transform="translate(0 60.688) rotate(-77.205)" fill="#2465de"/>
        <path id="Path_58" data-name="Path 58" d="M130.427,314.14l7.854-95.8H76.047l1.647,95.8Z" transform="translate(-69.928 -181.108)" fill="#2465de"/>
      </g>
      <g id="Group_24" data-name="Group 24" transform="translate(67.164 2.026)">
        <circle id="Ellipse_5" data-name="Ellipse 5" cx="31.117" cy="31.117" r="31.117" transform="translate(0 8.812) rotate(-8.141)" fill="#2465de"/>
        <path id="Path_60" data-name="Path 60" d="M160.57,316.485l1.35-99.458L100.1,224.181l7.879,92.4Z" transform="translate(-95.801 -185.394)" fill="#2465de"/>
      </g>
      <path id="Path_62" data-name="Path 62" d="M203.528,206.9H172.076c-.09,0-.179,0-.269,0H107.292c-.043,0-.084-.005-.128-.005s-.087.005-.128.005H76.047v31.322h.011a31.109,31.109,0,0,0,31.107,30.906H172.3v-.016a30.947,30.947,0,0,0,31.1-30.89h.13Z" transform="translate(-69.928 -200.77)" fill="#623a33"/>
      <path id="Path_63" data-name="Path 63" d="M203.528,206.9H172.076c-.09,0-.179,0-.269,0H107.292c-.043,0-.084-.005-.128-.005s-.087.005-.128.005H76.047v31.322h.011a31.109,31.109,0,0,0,31.107,30.906H172.3v-.016a30.947,30.947,0,0,0,31.1-30.89h.13Z" transform="translate(-69.928 -200.77)" fill="#623a33"/>
    </g>
    <path id="Path_88" data-name="Path 88" d="M294.328,359.116s19.334-2.816,21.04-1.678c.507.338-2.89,20.773-2.89,20.773l12.577,120.782-29.062-71.872Z" transform="translate(-80.03 -21.776)" opacity="0.3"/>
    <g id="Group_26" data-name="Group 26" transform="translate(52.604 233.215)">
      <circle id="Ellipse_6" data-name="Ellipse 6" cx="21.329" cy="21.329" r="21.329" transform="translate(137.133 61.894) rotate(-76.042)" fill="#649aff"/>
      <circle id="Ellipse_7" data-name="Ellipse 7" cx="21.329" cy="21.329" r="21.329" transform="matrix(0.227, -0.974, 0.974, 0.227, 0, 67.508)" fill="#649aff"/>
      <path id="Path_64" data-name="Path 64" d="M85.937,198.284l14,69.231-10.7,87.575s67.789,25.706,137.446,4.1c0,0-3.654-101.15-10.155-180.458L234,165.229C218.665,151,164.772,132.15,149.673,134.535c-23.761,3.752-82.774,31.626-84.546,38.3Z" transform="translate(-56.333 -134.329)" fill="#649aff"/>
    </g>
    <g id="Group_46" data-name="Group 46" transform="translate(86.362 76.729)">
      <g id="Group_29" data-name="Group 29" transform="translate(39.477 110.711)">
        <g id="Group_28" data-name="Group 28">
          <g id="Group_27" data-name="Group 27">
            <path id="Path_65" data-name="Path 65" d="M94.207,169.5l-5.36-52.015L128.5,137.668l-.378,1.9-1.108,26.168c-.315,7.485-.008,15.043-7.873,16.3h0C109.728,183.549,95.1,178.115,94.207,169.5Z" transform="translate(-88.847 -117.48)" fill="#d1e0fb"/>
          </g>
        </g>
      </g>
      <g id="Group_32" data-name="Group 32" transform="translate(39.477 110.711)">
        <g id="Group_31" data-name="Group 31">
          <g id="Group_30" data-name="Group 30">
            <path id="Path_66" data-name="Path 66" d="M127.436,155.805l.687-16.238.378-1.9L88.847,117.48l2.529,24.543C98.462,152.659,112.453,155.852,127.436,155.805Z" transform="translate(-88.847 -117.48)" fill="#588def"/>
          </g>
        </g>
      </g>
      <g id="Group_33" data-name="Group 33" transform="translate(4.325 24.963)">
        <path id="Path_67" data-name="Path 67" d="M177.137,150.14c-.177-12.394.573-30.218-4.382-43.186l-.011-.03-.013-.03c-2.187-5.7-5.5-10.438-10.462-13.375-5.442-3.915-13.011-6.444-24.372-7.349-23.872-1.9-39.39,7.042-49.774,22.582-7.74,11.584-4.439,26.782-2.861,32.261-4.412.4-10.555,3.064-9.15,15.151C78.256,174.637,91.627,175,95.572,175.8c0,0,7.362,32.892,47.937,29.74S177.433,170.975,177.137,150.14Z" transform="translate(-75.908 -85.918)" fill="#d1e0fb"/>
      </g>
      <g id="Group_34" data-name="Group 34">
        <path id="Path_68" data-name="Path 68" d="M181.213,125.215c10.864-9.321,17.3-22.362,13.4-37.448-5.893,2.66-11.459,4.83-17.352,7.49,6.178-5.572,7.517-10.636,7.069-18.528,0,0-73.113,15.687-88.64,27.548-4.58,3.5-7.175,6.776-8.563,10.3l-11.114-13.66s-6.637,16.5,6.33,22.174a17.058,17.058,0,0,0-6.7,10.28c-3.583,14.051,6.873,25.385,6.873,25.385a10.571,10.571,0,0,1,9.27-.91c4.708,1.663,9.981,10.052,9.712,18.354l4.322-.568-.56-17.471s5.727-4.233,10.663-18.8c7.735,3.85,17.015,5.662,24.288,4.54L126.7,130.784c12.228,8.832,21.886,12.217,36.953,12.943s31.072-5.795,38.741-18.784C195.907,125.3,187.7,124.851,181.213,125.215Z" transform="translate(-74.316 -76.729)" fill="#2465de"/>
      </g>
      <g id="Group_36" data-name="Group 36" transform="translate(71.958 103.187)">
        <g id="Group_35" data-name="Group 35">
          <path id="Path_69" data-name="Path 69" d="M106.468,114.907a1.383,1.383,0,0,1,.446,1.679,4.052,4.052,0,0,1-5.075,2.421c-.772-.323-1.106-.888-1.024-1.4.253-1.046,1.35-1.712,2.393-2.258C104.287,114.88,105.493,114.446,106.468,114.907Z" transform="translate(-100.803 -114.711)" fill="#588def"/>
        </g>
      </g>
      <g id="Group_37" data-name="Group 37" transform="translate(44.114 69.212)">
        <path id="Path_70" data-name="Path 70" d="M112.664,103.064l-.043-.073c-3.548-1.793-14.6-.475-22.06,3.548-.13,2.029,1.747,3.765,3.706,4.3a13.444,13.444,0,0,0,6.037-.22c3.516-.668,6.721-1.728,10.079-2.592A3.466,3.466,0,0,0,112.664,103.064Z" transform="translate(-90.554 -102.205)" fill="#2465de"/>
      </g>
      <g id="Group_38" data-name="Group 38" transform="translate(79.11 68.599)">
        <path id="Path_71" data-name="Path 71" d="M103.8,103.293l.022-.041c6.034-2.331,13.413-1.369,20.248,2.138.111,1.991-1.616,3.82-3.418,4.472a11.534,11.534,0,0,1-5.545.158c-3.075-.424-5.89-1.212-8.819-1.842A3.47,3.47,0,0,1,103.8,103.293Z" transform="translate(-103.435 -101.979)" fill="#2465de"/>
      </g>
      <g id="Group_39" data-name="Group 39" transform="translate(50.635 83.03)">
        <path id="Path_72" data-name="Path 72" d="M92.96,112.347a5.294,5.294,0,1,0,5.529-5.05A5.294,5.294,0,0,0,92.96,112.347Z" transform="translate(-92.954 -107.291)" fill="#2465de"/>
      </g>
      <g id="Group_40" data-name="Group 40" transform="translate(78.797 83.03)">
        <path id="Path_73" data-name="Path 73" d="M103.325,112.347a5.3,5.3,0,1,0,5.531-5.05A5.3,5.3,0,0,0,103.325,112.347Z" transform="translate(-103.32 -107.291)" fill="#2465de"/>
      </g>
      <g id="Group_41" data-name="Group 41" transform="translate(84.677 96.312)">
        <path id="Path_74" data-name="Path 74" d="M125.468,121.724a10,10,0,1,1-10.44-9.533A9.994,9.994,0,0,1,125.468,121.724Z" transform="translate(-105.484 -112.18)" fill="#c4d9ff"/>
      </g>
      <g id="Group_42" data-name="Group 42" transform="translate(33.977 97.744)">
        <path id="Path_75" data-name="Path 75" d="M106.806,122.251a10,10,0,1,1-10.44-9.533A10,10,0,0,1,106.806,122.251Z" transform="translate(-86.822 -112.707)" fill="#c4d9ff"/>
      </g>
      <g id="Group_43" data-name="Group 43" transform="translate(9.336 84.393)">
        <path id="Path_76" data-name="Path 76" d="M78.227,111.912c-1.413,4.887.592,10.041,2.562,14.733a7.994,7.994,0,0,0,2.48,3.717c1.25.853,3.287.725,3.942-.638.636-1.318-.3-2.8-1.032-4.067s-1.146-3.168.082-3.958c.573-.37,1.323-.337,1.923-.655,1.312-.693,1.3-2.562.964-4a22.39,22.39,0,0,0-2.2-5.719c-.973-1.758-2.508-3.559-4.515-3.526C80.327,107.829,78.811,109.891,78.227,111.912Z" transform="translate(-77.752 -107.793)" fill="#588def"/>
      </g>
      <g id="Group_45" data-name="Group 45" transform="translate(61.022 109.724)">
        <g id="Group_44" data-name="Group 44">
          <path id="Path_77" data-name="Path 77" d="M113.968,122.54c.261.432-.484,1.521-2.331,2.4a11.2,11.2,0,0,1-14.04-4.474c-1-1.785-.975-3.105-.513-3.306.965-.446,3.4,3.141,7.865,4.51C109.377,123.126,113.441,121.619,113.968,122.54Z" transform="translate(-96.777 -117.117)" fill="#588def"/>
        </g>
      </g>
    </g>
    <path id="Path_78" data-name="Path 78" d="M98.211,133.779s20.186,22.413,25.8,20.927,8.085-21.3,8.085-21.3,12.271,2.646,13.657,5.059,2.122,25.961-1.98,30.27-17.564-7.794-17.564-7.794-11.552,14.972-18,13.538S87.018,144.494,86.062,141.1,98.211,133.779,98.211,133.779Z" transform="translate(32.125 97.292)" fill="#fff"/>
    <path id="Path_86" data-name="Path 86" d="M294.019,451.558s19.629-4.552,21.335-5.689-24.179-86.62-24.179-86.62l-1.707,16.641Z" transform="translate(-78.063 -81.572)" opacity="0.2"/>
    <rect id="Rectangle_3" data-name="Rectangle 3" width="309" height="221" rx="12" transform="translate(50.405 264.148)" fill="#294d91"/>
    <rect id="Rectangle_6" data-name="Rectangle 6" width="108" height="24" rx="8" transform="translate(92.291 340.65)" fill="#4486ff"/>
    <rect id="Rectangle_7" data-name="Rectangle 7" width="108" height="25" rx="8" transform="translate(211.405 401.956)" fill="#4486ff"/>
    <rect id="Rectangle_8" data-name="Rectangle 8" width="108" height="24" rx="8" transform="translate(92.291 421.016)" fill="#4486ff"/>
    <rect id="Rectangle_9" data-name="Rectangle 9" width="51" height="25" rx="8" transform="translate(97.225 370.453)" fill="#4486ff"/>
    <rect id="Rectangle_11" data-name="Rectangle 11" width="108" height="7" rx="3.5" transform="translate(92.291 399.045)" fill="#4486ff"/>
    <rect id="Rectangle_18" data-name="Rectangle 18" width="108" height="7" rx="3.5" transform="translate(92.291 449.857)" fill="#4486ff"/>
    <rect id="Rectangle_12" data-name="Rectangle 12" width="108" height="7" rx="3.5" transform="translate(92.291 410.159)" fill="#4486ff"/>
    <rect id="Rectangle_17" data-name="Rectangle 17" width="108" height="7" rx="3.5" transform="translate(92.291 460.173)" fill="#4486ff"/>
    <rect id="Rectangle_13" data-name="Rectangle 13" width="108" height="8" rx="4" transform="translate(211.405 345.733)" fill="#4486ff"/>
    <rect id="Rectangle_14" data-name="Rectangle 14" width="70" height="8" rx="4" transform="translate(230.167 358.43)" fill="#4486ff"/>
    <rect id="Rectangle_15" data-name="Rectangle 15" width="108" height="8" rx="4" transform="translate(211.405 371.128)" fill="#4486ff"/>
    <rect id="Rectangle_16" data-name="Rectangle 16" width="35" height="8" rx="4" transform="translate(236.33 383.826)" fill="#4486ff"/>
    <rect id="Rectangle_10" data-name="Rectangle 10" width="49" height="25" rx="8" transform="translate(142.913 370.453)" fill="#4486ff"/>
    <path id="Path_103" data-name="Path 103" d="M20.339,11.833l12.407,9.306L57.12-4.121" transform="translate(246.612 442.782)" fill="none" stroke="#4486ff" stroke-linecap="round" stroke-linejoin="round" stroke-width="5"/>
    <g id="Group_55" data-name="Group 55" transform="translate(-4.225 257.164)">
      <g id="Group_52" data-name="Group 52" transform="matrix(0.914, 0.407, -0.407, 0.914, 55.124, 2.194)">
        <circle id="Ellipse_11" data-name="Ellipse 11" cx="21.308" cy="21.308" r="21.308" transform="translate(8.277 0)" fill="#d1e0fb"/>
        <circle id="Ellipse_12" data-name="Ellipse 12" cx="18.061" cy="18.061" r="18.061" transform="translate(0.001 99.403)" fill="#d1e0fb"/>
        <path id="Path_89" data-name="Path 89" d="M50.2,11.177C42.709,45.8,36.6,94.246,36.124,102.005H0S.166,29.86,9.1,0Z" transform="translate(0 15.459)" fill="#d1e0fb"/>
      </g>
      <path id="Path_90" data-name="Path 90" d="M32.493,97.261c3.762.6,7.507,1.324,11.274,1.9,0,0,6.877-49.656,11.828-72.528l-.008,0A21.29,21.29,0,0,0,14.5,15.459h-.008C9.192,33.174,5.393,61.4,0,92.134,8.785,94.251,23.547,95.828,32.493,97.261Z" transform="matrix(0.914, 0.407, -0.407, 0.914, 50.197, 0)" fill="#649aff"/>
      <g id="Group_53" data-name="Group 53" transform="matrix(0.438, 0.899, -0.899, 0.438, 125.094, 146.042)">
        <path id="Path_91" data-name="Path 91" d="M5.256.954a9.366,9.366,0,1,1-4.3,12.528A9.365,9.365,0,0,1,5.256.954Z" transform="translate(0 33.521)" fill="#d1e0fb"/>
        <path id="Path_92" data-name="Path 92" d="M0,34.475C5.3,29.829,3.032,16.4,4.98,11.153s9.361-5.637,9.361-5.637S19.172,1.657,22.38.335s5.773,1.376,5.564,6.2,4.994,2.779,7.214,7.092-.328,7.892,4.9,10.921S10.042,50.135,10.042,50.135Z" transform="translate(5.256 0)" fill="#d1e0fb"/>
      </g>
      <g id="Group_54" data-name="Group 54" transform="matrix(0.438, 0.899, -0.899, 0.438, 56.999, 82.896)">
        <circle id="Ellipse_13" data-name="Ellipse 13" cx="18.062" cy="18.062" r="18.062" transform="translate(0 27.241)" fill="#d1e0fb"/>
        <path id="Path_93" data-name="Path 93" d="M5.256.954a9.366,9.366,0,1,1-4.3,12.528A9.365,9.365,0,0,1,5.256.954Z" transform="translate(86.606 0)" fill="#d1e0fb"/>
        <path id="Path_94" data-name="Path 94" d="M81.731,0C71.388,6.231,52.973,9.752,31.7,16.39,11.209,22.787,0,28.123,0,28.123L15.861,60.575S82.415,22.844,91.773,15.66Z" transform="translate(10.131 0.954)" fill="#d1e0fb"/>
      </g>
    </g>
    <path id="Path_95" data-name="Path 95" d="M155.671,250.378s2.7-1.559,5.419-6.463-1.82-10.783-1.82-10.783-.22-6.189-1.307-9.487-4.809-3.486-8.338-.182-5.369-1.981-10.09-.853-5.781,5.393-11.487,3.4-6.821,16.638,0,23.466S155.671,250.378,155.671,250.378Z" transform="translate(102.037 247.811)" fill="#d1e0fb"/>
  </g>
</svg>
