<svg xmlns="http://www.w3.org/2000/svg" width="445.226" height="588.201" viewBox="0 0 445.226 588.201">
  <g id="f3" transform="translate(-610.184 -214.204)">
    <g id="Group_56" data-name="Group 56" transform="translate(738.924 424.648)">
      <circle id="Ellipse_14" data-name="Ellipse 14" cx="28.246" cy="28.246" r="28.246" transform="translate(30.079 -1)" fill="#fbc0a4"/>
      <circle id="Ellipse_15" data-name="Ellipse 15" cx="23.943" cy="23.943" r="23.943" transform="translate(0 132.544) rotate(-6.583)" fill="#fbc0a4"/>
      <path id="Path_104" data-name="Path 104" d="M655.931,259.75c-5.825,46.6-47.947,108.4-50.75,118.321l45.186,15.856s31.46-90.318,33.392-131.593Z" transform="translate(-618.243 -253.413)" fill="#fbc0a4"/>
    </g>
    <g id="Group_59" data-name="Group 59" transform="translate(552.184 695.298)">
      <path id="Path_112" data-name="Path 112" d="M654.12,342.888,642.491,406.2l-63.113-.468,5.173-68.945Z" transform="translate(-509.196 -299.095)" fill="#1154d1"/>
      <circle id="Ellipse_17" data-name="Ellipse 17" cx="34.918" cy="34.918" r="34.918" transform="translate(69.396 68.646) rotate(-79.404)" fill="#1154d1"/>
    </g>
    <g id="Group_203" data-name="Group 203" transform="translate(610.184 424.413)">
      <g id="Group_154" data-name="Group 154" transform="translate(0)">
        <g id="Group_153" data-name="Group 153">
          <g id="Group_152" data-name="Group 152">
            <path id="Path_232" data-name="Path 232" d="M613.115,362.023c2.493,2.723,6.367,3.6,9.99,4.323,6.6,1.329,13.291,3.383,19.878,4.706l13.919,7.139,2.729-4.773,6.9-12.08,2.3-4.032L655.681,349.7c-1.431-9.709-4.16-19.627-9.239-28.033-2.054-3.388-4.665-6.459-6.326-10.046-2.105-4.6-2.575-9.76-4.139-14.563a4.869,4.869,0,0,0-1.845-2.862,3.468,3.468,0,0,0-4.067.8,8.445,8.445,0,0,0-1.932,3.971c-.036.153-.076.332-.1.485a31.446,31.446,0,0,0,1.9,19.934,4.516,4.516,0,0,1,.608,2.509,3.66,3.66,0,0,1-1.293,1.911c-3.546,3.2-8.467,4.522-13.25,4.8-2,.118-4.124.123-5.749,1.272-2.356,1.681-2.637,5.018-2.56,7.91a85.258,85.258,0,0,0,2.2,16.9C610.493,357.316,611.3,360.03,613.115,362.023Z" transform="translate(-601.834 -293.823)" fill="#588def"/>
            <path id="Path_233" data-name="Path 233" d="M616.1,361.185c2.678,2.575,24,12.233,24,12.233l6.9-12.08,2.3-4.032L636.149,349.7c-1.431-9.709-4.16-19.627-9.239-28.033-2.054-3.388-4.665-6.459-6.326-10.046-2.105-4.6-2.575-9.76-4.139-14.563a4.869,4.869,0,0,0-1.845-2.862,3.468,3.468,0,0,0-4.067.8,8.445,8.445,0,0,0-1.932,3.971c-.036.153-.076.332-.1.485a31.446,31.446,0,0,0,1.9,19.934,4.516,4.516,0,0,1,.608,2.509s-5.294,15.263-2.407,25.734C610,352.677,613.4,358.6,616.1,361.185Z" transform="translate(-582.303 -293.823)" fill="#d1e1fb"/>
            <path id="Path_234" data-name="Path 234" d="M630.016,352.561l15.59,9.75,2.974-5.5L635.31,349.7c-1.436-9.714-4.16-19.632-9.249-28.038-2.049-3.388-4.655-6.454-6.316-10.056-2.111-4.589-2.575-9.745-4.139-14.553a4.888,4.888,0,0,0-1.85-2.867,3.473,3.473,0,0,0-4.068.8,8.456,8.456,0,0,0-1.921,3.971,4.855,4.855,0,0,0-.113.485,6.6,6.6,0,0,1,2.576-1.1c2.437-.082,3,3.286,3.286,5.7.695,5.759,4.481,10.593,7.46,15.58A65.969,65.969,0,0,1,630.016,352.561Z" transform="translate(-581.463 -293.826)" fill="#eff5ff"/>
            <path id="Path_235" data-name="Path 235" d="M617.692,315.852a33.572,33.572,0,0,0,5.774,14.563c-3.9-3.378-7.226-7.624-8.626-12.6s-.639-10.711,2.754-14.6a7,7,0,0,1,2.192-1.906c.307,1.86-1.533,4.757-1.891,6.714A25.928,25.928,0,0,0,617.692,315.852Z" transform="translate(-589.677 -263.049)" fill="#3b74dd"/>
            <g id="Group_151" data-name="Group 151" transform="translate(0 30.191)">
              <path id="Path_236" data-name="Path 236" d="M626.321,339.546c8.206,1.053,17.226-3.628,17.226-3.628a19.93,19.93,0,0,0,.072-5.912c-.087-.889-.23-1.8-.409-2.734a53.729,53.729,0,0,0-1.661-6.316c-.291-.93-.6-1.865-.935-2.785-.894-2.453-1.881-4.844-2.872-7.057-.414-.951-.838-1.86-1.242-2.729-1.119-2.356-2.162-4.379-2.969-5.882-.925-1.737-1.528-2.77-1.528-2.77-7.481,1.267-16.73,8.927-16.73,8.927a29.133,29.133,0,0,0,.72,8.81C618.538,328.978,626.321,339.546,626.321,339.546Z" transform="translate(-615.189 -299.734)" fill="#d1e0fb"/>
              <g id="Group_150" data-name="Group 150" transform="translate(10.605 8.651)">
                <g id="Group_147" data-name="Group 147" transform="translate(0)">
                  <path id="Path_237" data-name="Path 237" d="M616.375,307.068s1.058-.1,2.606-.358a45.417,45.417,0,0,0,5.749-1.267c1.3-.394,2.519-.843,3.592-1.288-.414-.951-.838-1.86-1.242-2.729a14.639,14.639,0,0,0-3.383.567,14.989,14.989,0,0,0-5.5,3.112A12.441,12.441,0,0,0,616.375,307.068Z" transform="translate(-616.375 -301.427)" fill="#3b74dd"/>
                </g>
                <g id="Group_148" data-name="Group 148" transform="translate(4.338 9.786)">
                  <path id="Path_238" data-name="Path 238" d="M615.63,308.427s1.022-.01,2.509-.153a33.235,33.235,0,0,0,5.524-.976,28.961,28.961,0,0,0,3.383-1.17c-.291-.93-.6-1.865-.935-2.785a13.677,13.677,0,0,0-3.4.49,14.508,14.508,0,0,0-5.268,2.785A12.6,12.6,0,0,0,615.63,308.427Z" transform="translate(-615.63 -303.342)" fill="#3b74dd"/>
                </g>
                <g id="Group_149" data-name="Group 149" transform="translate(5.616 18.886)">
                  <path id="Path_239" data-name="Path 239" d="M615.225,310.437s1.068.01,2.647-.138a34.364,34.364,0,0,0,5.887-1.088,30.081,30.081,0,0,0,3.674-1.354c-.087-.889-.23-1.8-.409-2.734a16.144,16.144,0,0,0-4.267.639,16.687,16.687,0,0,0-5.554,2.867A14.644,14.644,0,0,0,615.225,310.437Z" transform="translate(-615.225 -305.123)" fill="#3b74dd"/>
                </g>
              </g>
              <path id="Path_240" data-name="Path 240" d="M618,317.471a20.571,20.571,0,0,1,3.792-6.51,24.988,24.988,0,0,1,5.5-4.211,46.815,46.815,0,0,1,7.082-3.94,5.99,5.99,0,0,1,1.165-.307c-.925-1.737-1.528-2.77-1.528-2.77-7.481,1.267-16.73,8.927-16.73,8.927A29.133,29.133,0,0,0,618,317.471Z" transform="translate(-617.199 -299.734)" fill="#eff5ff"/>
            </g>
          </g>
        </g>
      </g>
      <g id="Group_155" data-name="Group 155" transform="translate(45.072 11.207)">
        <path id="Path_241" data-name="Path 241" d="M729.121,380.556c-8.447,11.058-15.989,18.927-22.366,21.85a14.756,14.756,0,0,1-1.794.705c-31.733,10.189-121.975-78.934-121.975-78.934l4.374-5.974,5.713-7.828,3.567-4.87s64.861,32.857,92.051,52.326l.133.092c1.569,1.129,3.01,2.213,4.308,3.235,0,0,5.861-10.547,9.423-15.381Z" transform="translate(-581.023 -257.027)" fill="#d1e1fb"/>
        <path id="Path_242" data-name="Path 242" d="M590.914,308.566c17.282,17.992,84.146,77.508,122.17,81.264h.01a14.756,14.756,0,0,1-1.794.705c-25.059,8.043-93.032-51.887-117.81-74.907l-6.127-3.143Z" transform="translate(-587.363 -244.451)" fill="#588def"/>
        <path id="Path_243" data-name="Path 243" d="M689.857,361.159l-99.828-51.1,3.337-4.553s64.861,32.857,92.051,52.326l.133.092Z" transform="translate(-577.749 -257.027)" fill="#eff5ff"/>
        <path id="Path_246" data-name="Path 246" d="M574.107,297.37Z" transform="translate(-380.639 -290.467)" fill="#204d74"/>
      </g>
    </g>
    <path id="Path_146" data-name="Path 146" d="M0,0H224.673V81.28H0Z" transform="translate(729.208 720.307)" fill="#3b7fff"/>
    <path id="Path_147" data-name="Path 147" d="M0,0H96.636l-.05,81.383H-.05Z" transform="translate(926.851 720.307)" fill="#7daaff"/>
    <g id="Group_81" data-name="Group 81" transform="translate(764.615 184.28)">
      <path id="Path_320" data-name="Path 320" d="M571.893,380.845l11.514,10.648,8.12,10.614c3.556-2.841,7.256-5.938,11.058-9.213,11.656-10.041,24.211-21.794,36.194-33.45l27.286-34.092c1.088-10.6,1.763-17.9-3.776-27-1.579-2.606-15.534-3.269-24.186,3.849-3.838,3.158-40.609,45.995-40.609,45.995C587.7,359.69,577.867,372.715,571.893,380.845Z" transform="translate(-689.499 171.067) rotate(-19)" fill="#3b7fff"/>
      <path id="Path_321" data-name="Path 321" d="M575.134,350.733l4.788,7.215c3.556-2.841,7.256-5.938,11.058-9.213l25.4-23.077,12.161-35.319Z" transform="translate(-652.865 201.635) rotate(-19)" fill="#1e56bf"/>
      <path id="Path_322" data-name="Path 322" d="M653.015,298.442c-22.715-6.674-66.024,59.548-79.049,81.4l3.664,4.793,21.5-30.736C612.949,334.147,634.839,314.559,653.015,298.442Z" transform="translate(-692.042 172.087) rotate(-19)" fill="#7daaff"/>
      <g id="Group_60" data-name="Group 60" transform="translate(0 207.24)">
        <circle id="Ellipse_18" data-name="Ellipse 18" cx="28.246" cy="28.246" r="28.246" transform="translate(181.916 40.068)" fill="#3b7fff"/>
        <path id="Path_114" data-name="Path 114" d="M809.763,326.578c5.02,34.724,5.825,20.98-3.906,46.437-4.795,18.334-20.413,71.82-27.49,87.708a75.193,75.193,0,0,0-1.675,28.812s-51.864,13.481-123.98,0l2.871-92.4s-25.2-28.4-27.031-50.405,16.5-52.069,16.5-52.069L621.89,275.844c9.709-12.429,83.469-36.85,103.463-33.691,31.471,4.969,109.625,41.883,111.967,50.716Z" transform="translate(-602.88 -240.88)" fill="#3b7fff"/>
      </g>
      <g id="Group_146" data-name="Group 146" transform="translate(192.568 -29.076)">
        <g id="Group_145" data-name="Group 145" transform="translate(220.27 0)">
          <g id="Group_144" data-name="Group 144">
            <g id="Group_143" data-name="Group 143" transform="translate(-374 59)">
              <g id="Group_142" data-name="Group 142">
                <path id="Path_202" data-name="Path 202" d="M552.113,412.892a122.914,122.914,0,0,0,15.712,4.1c36.519,7.164,82.179,1.773,108.624-2.635,13.291-2.223,21.74-4.189,21.74-4.189s4.25-35.811,4.25-49.481A152.386,152.386,0,0,0,700.7,337.4c-7.6-49.305-37.59-71.759-39.715-73.3l-.094-.066-.027-.022H604.575l-20.647,10.623-4.134,2.125-1.57.807-22.6,11.617-.555,19.434-.439,15.443Z" transform="translate(-545.684 -251.942)" fill="#2465de"/>
                <path id="Path_203" data-name="Path 203" d="M557.287,410.2a54.758,54.758,0,0,0,4.332,11.1c36.519,7.164,82.179,1.773,108.624-2.635a1.572,1.572,0,0,0,.143-.209c9.009-13.7,13.06-30.25,13.489-46.637s-2.63-32.7-6.945-48.509c-3.376-12.407-7.62-24.743-14.784-35.416a57.718,57.718,0,0,0-21.466-19.572c-.434-.231-.873-.434-1.312-.642-9.657-4.5-20.252-4.7-30.859-4.612-13.654.11-27.582,6.478-34.922,18-6.67,10.464-7.28,23.519-8.894,35.822-2.042,15.6-5.979,30.908-8.361,46.461S553.137,395.026,557.287,410.2Z" transform="translate(-539.477 -256.25)" fill="#1e54b8"/>
                <g id="Group_141" data-name="Group 141" transform="translate(0 22.436)">
                  <path id="Path_204" data-name="Path 204" d="M576.354,301.536c.159-.856.422-2.092.84-3.6a32.831,32.831,0,0,1,1.9-5.188,22.239,22.239,0,0,1,3.865-5.786,20.947,20.947,0,0,1,5.6-4.189,27.8,27.8,0,0,1,5.172-2.042c.659-.2,1.246-.346,1.79-.467.664-.626,1.059-.966,1.059-.966l-.346.807c.412-.088.8-.159,1.109-.22.862-.148,1.345-.2,1.345-.2s-1.2.774-3.151,2.059c-.406.961-.928,2.185-1.537,3.612a64.076,64.076,0,0,0-4.5,14.235,85.724,85.724,0,0,0-.7,15.037c.022,2.02.033,3.673.044,4.809-.017,1.147-.028,1.79-.028,1.79l-.719-1.636c-.445-1.065-1.065-2.6-1.708-4.562a42.6,42.6,0,0,1-1.718-7.082,29.276,29.276,0,0,1,.005-9.163,27.486,27.486,0,0,1,3.069-8.68,36.972,36.972,0,0,1,3.947-5.753,40.232,40.232,0,0,0-6.022,5.161,64.889,64.889,0,0,0-6.78,9.19l-2,3.058-.769,1.115S576.2,302.4,576.354,301.536Z" transform="translate(-573.719 -205.718)" fill="#1e54b8"/>
                  <g id="Group_133" data-name="Group 133" transform="translate(11.091)">
                    <g id="Group_132" data-name="Group 132">
                      <g id="Group_127" data-name="Group 127" transform="translate(26.356 104.421)">
                        <path id="Path_205" data-name="Path 205" d="M564.4,301c2.311,8.73,6.139,19.9,26.122,26.607,26.538,8.888,44.723-8.021,50.229-20.576-8.108-2.871-16.93-13.005-16.93-13.005h-36.36a.845.845,0,0,0-.148-.011.49.49,0,0,1-.121-.011c-.132-.006-.307-.016-.527-.016l-.055-.011c-1.109-.028-2.869,2.466-6.163,3.295v.006c-1.3.329-2.745.763-4.37,1.35C571.779,300.191,564.4,301,564.4,301Z" transform="translate(-559.293 -244.27)" fill="#d1e0fb"/>
                        <path id="Path_206" data-name="Path 206" d="M570.7,377.34l35.547-42.666c-.06-5.419-.516-7.455-1-20.862-.521-14.916-1.071-28.894-1.071-28.894l-42.08,16.634c4.7,10.524,6.813,22.514,7.521,33.939C571.094,359.577,570.7,377.34,570.7,377.34Z" transform="translate(-541.712 -284.919)" fill="#d1e0fb"/>
                        <path id="Path_207" data-name="Path 207" d="M562.273,301.553c4.7,10.524,6.813,22.514,7.521,33.939,1.334.56,2.63,1.07,3.848,1.493,4.886,1.7,20.587-12.232,31.781-23.173-.521-14.916-1.071-28.894-1.071-28.894Z" transform="translate(-541.894 -284.919)" fill="#588def"/>
                      </g>
                      <g id="Group_131" data-name="Group 131">
                        <g id="Group_128" data-name="Group 128" transform="translate(0)">
                          <path id="Path_208" data-name="Path 208" d="M562.673,336.963q1.277,5.839,3.294,12.254s-1.889,21.07.324,25.792,16.4,34.164,31.293,32.347c12.429-1.515,42.821-19.72,53.384-30.568,2.114-2.163,3.437-4.024,3.673-5.407,1.455-8.361,6.434-45.243,6.906-48.328,1.263-8.367,4.771-71.693-71.792-54.07a36.86,36.86,0,0,0-27.79,27.664C559.709,306.614,558.967,319.988,562.673,336.963Z" transform="translate(-560.083 -265.898)" fill="#d1e0fb"/>
                          <path id="Path_209" data-name="Path 209" d="M565.385,291.1s-1.889,21.07.324,25.792,16.4,34.164,31.293,32.347c12.429-1.515,42.821-19.72,53.384-30.568-12.94,8.982-47.444,31.908-57.562,28.389-12.539-4.359-26.708-32.105-26.44-34.85.275-2.761,1.093-20.736,1.093-20.736s-2.531-5.688-5.386-12.627Q563.368,284.682,565.385,291.1Z" transform="translate(-559.501 -207.779)" fill="#dce9ff"/>
                        </g>
                        <g id="Group_130" data-name="Group 130" transform="translate(91.132 62.96)">
                          <path id="Path_210" data-name="Path 210" d="M557.607,318.828c9.613-.758,16.613-6.462,20.363-11.233a23.884,23.884,0,0,0,2.02-3.019c2.745-4.979,3.535-22.251-3.53-26.264-4.958-2.805-8.559,1.268-10.277,3.969v.005a16.876,16.876,0,0,0-1.115,2.042Z" transform="translate(-557.607 -277.367)" fill="#dce9ff"/>
                          <path id="Path_211" data-name="Path 211" d="M557.821,317.493c9.613-.758,16.613-6.462,20.363-11.233.318-.489.6-.955.845-1.394,2.745-4.979,3.535-22.245-3.536-26.253-4.008-2.278-7.137-.038-9.1,2.333v.005a16.876,16.876,0,0,0-1.115,2.042Z" transform="translate(-557.821 -276.032)" fill="#d1e0fb"/>
                          <path id="Path_212" data-name="Path 212" d="M571.756,282.578a7.364,7.364,0,0,1-.324,4.178c-1.932,5.8-7.719,10.222-13.258,14.323A14.565,14.565,0,0,0,560.117,292a32.2,32.2,0,0,1-.363-3.223C559.717,284.439,569.665,274.414,571.756,282.578Z" transform="translate(-550.675 -267.913)" fill="#588def"/>
                          <g id="Group_129" data-name="Group 129" transform="translate(4.716 11.469)">
                            <path id="Path_213" data-name="Path 213" d="M558.465,302.8s.11-.06.313-.176.527-.285.9-.538a12.458,12.458,0,0,0,2.734-2.465,11.115,11.115,0,0,0,2.245-4.6,9.626,9.626,0,0,0-.692-6.088,5.9,5.9,0,0,0-.406-.758l-.11-.187c-.027-.049-.011-.017-.016-.022l.006.005h-.011l.016-.033.088-.17.192-.329c.126-.214.252-.434.385-.637a25.22,25.22,0,0,1,1.674-2.394c.582-.736,1.18-1.422,1.773-2.048a16.082,16.082,0,0,1,1.757-1.625,3.9,3.9,0,0,1,1.79-.8,2.887,2.887,0,0,1,1.526.253,1.494,1.494,0,0,1,.681.62,1.236,1.236,0,0,1,.1.291.693.693,0,0,0-.022-.307,1.38,1.38,0,0,0-.571-.791,3.142,3.142,0,0,0-1.746-.549,4.879,4.879,0,0,0-2.377.681,15.05,15.05,0,0,0-2.157,1.543,23.811,23.811,0,0,0-2.125,2,21.328,21.328,0,0,0-1.971,2.443q-.231.329-.445.675l-.214.346-.28.494-.2.34a3.618,3.618,0,0,0,.192.346l.28.489a3.832,3.832,0,0,1,.346.664,10.122,10.122,0,0,1,.895,5.375,11.459,11.459,0,0,1-1.466,4.4,12.83,12.83,0,0,1-2.086,2.674c-.3.3-.565.494-.736.653Z" transform="translate(-558.465 -279.456)" fill="#1e54b8"/>
                          </g>
                        </g>
                      </g>
                    </g>
                  </g>
                  <g id="Group_140" data-name="Group 140" transform="translate(6.734 42.931)">
                    <path id="Path_214" data-name="Path 214" d="M576.019,283.534s9.772-13.077,15.224-7.9,3,5.72,3,5.72Z" transform="translate(-576.01 -270.564)" fill="#1e54b8"/>
                    <path id="Path_215" data-name="Path 215" d="M593.092,288.7s-18.034-20.768-25.413-13.4c-4.315,4.31-1.318,7.241-1.318,7.241Z" transform="translate(-515.73 -273.719)" fill="#1e54b8"/>
                    <path id="Path_216" data-name="Path 216" d="M575.53,277.825c.6,1.526,2.569,2.734,3.98,3.426a3.571,3.571,0,0,1,2.482-1.125c2.651,0,4.8,3.448,4.8,7.7s-2.146,7.7-4.8,7.7-4.793-3.453-4.793-7.7a11.186,11.186,0,0,1,.829-4.326C576.315,281.728,575.53,277.825,575.53,277.825Z" transform="translate(-565.327 -255.281)" fill="#1e54b8"/>
                    <g id="Group_135" data-name="Group 135" transform="translate(48.172 24.963)">
                      <g id="Group_134" data-name="Group 134">
                        <path id="Path_217" data-name="Path 217" d="M593.236,285.29s-.423-.137-1.175-.4c-.736-.247-1.806-.566-3.08-.862a39.65,39.65,0,0,0-9.465-.928,41.42,41.42,0,0,0-9.536,1.252c-1.3.34-2.388.7-3.14.972-.769.274-1.2.434-1.2.434a7.506,7.506,0,0,1,.532-.961,11.344,11.344,0,0,1,2.124-2.416,18.17,18.17,0,0,1,11.375-4.118,16.531,16.531,0,0,1,11.123,3.739,9.726,9.726,0,0,1,1.971,2.339A6.768,6.768,0,0,1,593.236,285.29Z" transform="translate(-565.638 -278.266)" fill="#1e54b8"/>
                      </g>
                    </g>
                    <path id="Path_218" data-name="Path 218" d="M576.208,279.043a10.577,10.577,0,0,0,9.986,4.041,10.565,10.565,0,0,0-9.986-4.041Z" transform="translate(-568.453 -250.235)" fill="#fff0e7"/>
                    <g id="Group_139" data-name="Group 139" transform="translate(24.142 24.844)">
                      <path id="Path_219" data-name="Path 219" d="M583.745,284.587c1.564-.571,3.124-1.427,4.781-1.257a15.955,15.955,0,0,1-8.674,8.361,2.367,2.367,0,0,1-.923.22,2.517,2.517,0,0,1-1.082-.4,18.755,18.755,0,0,1-5.484-4.886,3.619,3.619,0,0,1-.7-1.3c-.379-1.609.725-1.252,1.686-.884a14.459,14.459,0,0,0,3.453.889A14.853,14.853,0,0,0,583.745,284.587Z" transform="translate(-569.548 -255.507)" fill="#588def"/>
                      <path id="Path_220" data-name="Path 220" d="M582.9,313.506c-.977-.873-2.075-1.614-3.085-2.47a25.541,25.541,0,0,1-3.41-3.481c5.227-3.6,5.172-9.053,4.919-15.24a17.942,17.942,0,0,0-4.831-11.529,17.217,17.217,0,0,0-1.625-1.537,6.326,6.326,0,0,0-1.806-1c.324.368.543.8.835,1.175a36.635,36.635,0,0,1,2.212,2.975,22.066,22.066,0,0,1,1.675,3.36,21.818,21.818,0,0,1,1.564,7.324,18.112,18.112,0,0,1-1.175,7.241,14.325,14.325,0,0,1-5.232,6.742c-.022.016,3.574,4.161,3.925,4.5a18.716,18.716,0,0,0,2.959,2.333,6.555,6.555,0,0,0,3.52,1.4,2.126,2.126,0,0,0,1.136-.346,4.009,4.009,0,0,1-.615-.489c-.082-.077-.159-.165-.236-.247C583.393,313.967,583.151,313.737,582.9,313.506Z" transform="translate(-572.94 -278.244)" fill="#2465de"/>
                      <g id="Group_137" data-name="Group 137" transform="translate(17.288 55.97)">
                        <g id="Group_136" data-name="Group 136" transform="translate(0)">
                          <path id="Path_221" data-name="Path 221" d="M584.424,288.439a18.81,18.81,0,0,1-15.323,3.278,8.087,8.087,0,0,0,7.741,2.509C579.807,293.567,582.816,291.014,584.424,288.439Z" transform="translate(-569.102 -288.439)" fill="#588def"/>
                        </g>
                      </g>
                      <g id="Group_138" data-name="Group 138" transform="translate(3.086 38.522)">
                        <path id="Path_222" data-name="Path 222" d="M567.568,291.915a25.232,25.232,0,0,0,9.761,9.272,19.163,19.163,0,0,0,11.2,1.993,16.9,16.9,0,0,0,10.239-5c5.32-5.342,6.747-12.9,6.747-12.9-23.876-.4-37.386,6.357-37.924,6.621Z" transform="translate(-567.568 -285.261)" fill="#3b74dd"/>
                        <path id="Path_223" data-name="Path 223" d="M567.568,291.915s.719,1.142,4.359,1.872,26.582-3.4,29.086-4.535a13.263,13.263,0,0,0,4.5-3.975c-23.876-.4-37.386,6.357-37.924,6.621Z" transform="translate(-567.568 -285.261)" fill="#fff0e7"/>
                        <path id="Path_224" data-name="Path 224" d="M568.8,292.09a19.163,19.163,0,0,0,11.2,1.993,16.9,16.9,0,0,0,10.239-5C585.514,287.446,574.99,284.937,568.8,292.09Z" transform="translate(-559.036 -276.163)" fill="#1e54b8"/>
                      </g>
                    </g>
                    <path id="Path_225" data-name="Path 225" d="M594.681,291.137c-.84,2.234-5.666,2.492-10.788.576s-8.586-5.281-7.752-7.516,5.666-2.493,10.782-.576S595.515,288.9,594.681,291.137Z" transform="translate(-576.018 -235.022)" fill="#588def"/>
                    <path id="Path_226" data-name="Path 226" d="M592.34,284.881c.873,3.371-4.678,7.73-12.4,9.728s-14.686.884-15.559-2.481,4.677-7.73,12.4-9.728S591.467,281.51,592.34,284.881Z" transform="translate(-509.285 -239.203)" fill="#588def"/>
                  </g>
                  <path id="Path_227" data-name="Path 227" d="M567.943,280.678a18.094,18.094,0,0,1,2.674-1.488,17.038,17.038,0,0,1,2.756-1.01,18.963,18.963,0,0,1,5.32-.758,7.3,7.3,0,0,1,.774.027,16.312,16.312,0,0,1,2.267.214,19.52,19.52,0,0,1,16.212,16.393c3.382-1.5,7.066-.664,9.366.214a21.283,21.283,0,0,1,21.169-18.852,21.161,21.161,0,0,1,14.274,5.517,21.429,21.429,0,0,1,5.616,8.164l19.643-3.206,3.031-.5h.044l5.375-.878.088.56.176,1.048.252,1.537.006.077-.4.066-3.019.489-.3.055h-.006l-1.312.209-.011.011-1.361.22-.774.126-1.049.165-8.081,1.318-11.353,1.85a21.308,21.308,0,1,1-42.108,5.523c-1.713-.785-5.984-2.333-9.07-.033a20.036,20.036,0,0,1-.357,3.014,18.787,18.787,0,0,1-1.345,4.134A19.452,19.452,0,0,1,580.3,316.325c-.522.049-1.06.071-1.6.071-.291,0-.577-.011-.873-.022a16.224,16.224,0,0,1-2.256-.236,2.527,2.527,0,0,1-.39-.066,1.231,1.231,0,0,1-.2-.033,19.262,19.262,0,0,1-4.48-1.449,20.052,20.052,0,0,1-1.894-1.01c-.538-.329-1.06-.681-1.565-1.06-.06-.049-.121-.088-.17-.137a18.005,18.005,0,0,1-2.323-2.1,19.446,19.446,0,0,1,3.4-29.6Zm55.547,33.4a17.627,17.627,0,0,0,4.99.708,18.07,18.07,0,1,0-4.99-.708Zm-57.271-6.824a13.865,13.865,0,0,0,.939,1.032,14.663,14.663,0,0,0,1.636,1.455,15.865,15.865,0,0,0,2.663,1.675,16.177,16.177,0,0,0,3.909,1.372c.121.022.241.049.362.066a.862.862,0,0,0,.165.022,12.975,12.975,0,0,0,2.092.231c.23.022.467.022.708.022a16.225,16.225,0,0,0,16.157-14.883,13.311,13.311,0,0,0,.066-1.334,14.86,14.86,0,0,0-.143-2.1,16.235,16.235,0,0,0-13.659-13.928,15.331,15.331,0,0,0-2.421-.187,16.162,16.162,0,0,0-7.741,1.971,16.4,16.4,0,0,0-3.129,2.234,16.177,16.177,0,0,0-1.6,22.355Z" transform="translate(-559.214 -223.152)" fill="#002974"/>
                </g>
                <path id="Path_228" data-name="Path 228" d="M556.306,319.111a128.328,128.328,0,0,0,1.125,14.817c.154,1.081.253,1.669.253,1.669,24.628-17.316,24.716-37.222,24.024-43.5,6.687,34.883,80.609,54.943,80.609,54.943l10.382,4.524a32.19,32.19,0,0,0,5.583-9.091c4.216-9.717,7.609-27.23-3.206-52.72a42.5,42.5,0,0,0-11.293-15.789l-.094-.066c-23.8-20.549-65.352-8.68-65.352-8.68C560.994,261.813,555.938,297.256,556.306,319.111Z" transform="translate(-548.483 -261.812)" fill="#1e54b8"/>
                <path id="Path_229" data-name="Path 229" d="M559.364,296.275c.274-.829.692-2.015,1.306-3.448a31.941,31.941,0,0,1,2.57-4.9,22.155,22.155,0,0,1,4.59-5.226,20.854,20.854,0,0,1,6.1-3.415,29.043,29.043,0,0,1,5.4-1.35c.675-.1,1.285-.17,1.839-.225.735-.527,1.175-.813,1.175-.813l-.45.752c.423-.033.807-.055,1.131-.066.873-.044,1.356-.033,1.356-.033s-1.284.615-3.393,1.63c-.532.9-1.208,2.042-2,3.376a64.06,64.06,0,0,0-6.33,13.527,84.2,84.2,0,0,0-2.674,14.806c-.253,2.009-.456,3.645-.593,4.776-.17,1.136-.269,1.773-.269,1.773s-.176-.62-.494-1.724c-.3-1.1-.714-2.718-1.093-4.738a42.683,42.683,0,0,1-.768-7.247,29.185,29.185,0,0,1,1.208-9.086,27.6,27.6,0,0,1,4.184-8.207,37.308,37.308,0,0,1,4.666-5.177,40.489,40.489,0,0,0-6.643,4.321,63.882,63.882,0,0,0-7.927,8.224c-1,1.164-1.823,2.108-2.388,2.761-.582.648-.911,1-.911,1S559.095,297.1,559.364,296.275Z" transform="translate(-465.167 -194.089)" fill="#1e54b8"/>
                <path id="Path_230" data-name="Path 230" d="M552.448,319.111a14.743,14.743,0,0,0,1.565-.626c11.683-5.314,19.259-20.785,23.151-31.051a99.057,99.057,0,0,0,3.162-9.668,15.681,15.681,0,0,0,2.542,6.736c7.587,12.687,29.607,30.606,29.607,30.606l-3.272-10.09s6.022,9.81,28.806,24.178c9.278,5.847,23.178,10.184,36.415,13.28,9.377,2.19,18.413,3.761,25.216,4.793a133.076,133.076,0,0,0-6.259-24.831c-11.556-32.122-31.726-47.219-33.456-48.471l-.094-.066c-23.8-20.549-65.352-8.68-65.352-8.68a52.319,52.319,0,0,0-7.472-.154C556.45,266.776,552.1,298.8,552.448,319.111Z" transform="translate(-544.625 -261.812)" fill="#2465de"/>
                <path id="Path_231" data-name="Path 231" d="M553.57,265.068c4.321,8.85,12.813,15.377,21.065,21.076a15.764,15.764,0,0,1-1.866-8.795,100.6,100.6,0,0,0,43.25,35.366,26.486,26.486,0,0,1-2.8-13.291,92.318,92.318,0,0,0,37.754,20.659,89.141,89.141,0,0,0,8.97,2.355c-11.556-32.122-31.726-47.219-33.456-48.471l-.094-.066c-23.8-20.549-65.352-8.68-65.352-8.68A52.319,52.319,0,0,0,553.57,265.068Z" transform="translate(-511.187 -261.812)" fill="#3b74dd"/>
              </g>
            </g>
          </g>
        </g>
      </g>
    </g>
    <g id="Group_82" data-name="Group 82" transform="translate(624.205 639.155)">
      <circle id="Ellipse_19" data-name="Ellipse 19" cx="34.918" cy="34.918" r="34.918" transform="translate(0 129.037) rotate(-84.463)" fill="#1154d1"/>
      <path id="Path_129" data-name="Path 129" d="M648.244,311.993a41.209,41.209,0,1,0,50.108,29.762A41.21,41.21,0,0,0,648.244,311.993Z" transform="translate(-455.305 -310.708)" fill="#2465de"/>
      <path id="Path_130" data-name="Path 130" d="M580.4,372.594l163.436-61.53,20.344,79.868L597.64,440.27Z" transform="translate(-550.897 -309.781)" fill="#1154d1"/>
    </g>
    <path id="Path_325" data-name="Path 325" d="M538.974,383.219l23.446,14.088c3.441-4.481,4.018-16.212,7.82-19.487l66.7-54.43,4.88-29.71Z" transform="translate(253.72 588.396) rotate(-31)" fill="#1e56bf"/>
    <path id="Path_319" data-name="Path 319" d="M624.332,430.1s167.8-53.8,181.426-61.53,14.473-11.111,19.269-22.394S827,310.351,827,310.351H839.13v43.438s.322,13.844-7.334,23.129-23.288,14.014-23.288,14.014l-154.991,44.2-6.646,38.287H624.664l-.688-33.148Z" transform="translate(38.726 328.929)" fill="#003394"/>
    <path id="Path_132" data-name="Path 132" d="M624.521,310.721H666.17c.119,0,.238,0,.356,0h44.762c.058,0,.115-.011.169-.011s.115.011.173.011h41.038V352.2h-.014a41.2,41.2,0,0,1-41.2,40.93H665.872v-.022A40.98,40.98,0,0,1,624.694,352.2h-.173Z" transform="translate(187.925 328.453)" fill="#1154d1"/>
    <g id="Group_83" data-name="Group 83" transform="translate(707.714 686.673)">
      <path id="Path_135" data-name="Path 135" d="M668.61,336.208l-.873,70.746H613.031l-13.5-60.467Z" transform="translate(-584.704 -291.979)" fill="#1154d1"/>
      <circle id="Ellipse_20" data-name="Ellipse 20" cx="34.918" cy="34.918" r="34.918" transform="matrix(0.723, -0.69, 0.69, 0.723, 0, 48.218)" fill="#2465de"/>
    </g>
    <g id="Group_84" data-name="Group 84" transform="translate(722.165 639.155)">
      <circle id="Ellipse_21" data-name="Ellipse 21" cx="34.918" cy="34.918" r="34.918" transform="translate(0 61.733)" fill="#1154d1"/>
      <path id="Path_136" data-name="Path 136" d="M679.58,311.993a41.209,41.209,0,1,0,50.108,29.762A41.208,41.208,0,0,0,679.58,311.993Z" transform="translate(-510.857 -308.708)" fill="#1154d1"/>
      <path id="Path_137" data-name="Path 137" d="M606.738,372.594l181.426-61.53,5.8,56.5L623.976,440.27Z" transform="translate(-580.439 -309.781)" fill="#1154d1"/>
      <path id="Path_318" data-name="Path 318" d="M624.332,430.1S753.969,382,767.6,374.276s14.473-11.111,19.269-22.394-3.57-42.108-3.57-42.108h15.589l2.085,49.724s.322,13.844-7.334,23.129-23.288,14.014-23.288,14.014l-118.63,41.341,9.46,34.139h-37.2V440.27Z" transform="translate(-580.439 -309.781)" fill="#003394"/>
      <path id="Path_316" data-name="Path 316" d="M574.026,417.77a2.9,2.9,0,0,1-1.155,1.6,2.7,2.7,0,0,1-1.978.026c-3.291-.91-5.953-3.342-8.079-6.009-4.615-5.79-14.415-25.7-.629-26C575.728,387.085,577.552,408.823,574.026,417.77Z" transform="translate(-644.951 -307.068)" fill="#003394"/>
      <path id="Path_317" data-name="Path 317" d="M596.194,420.156c-1.053,2.959-2.734,6.055-5.7,7.093a8.054,8.054,0,0,1-7.312-1.523,19.922,19.922,0,0,1-4.854-6.009c-2.412-4.1-4.5-8.493-5.176-13.2-1.385-9.561,5.943-22.07,16.893-17.313C601.135,394.024,599.428,411.056,596.194,420.156Z" transform="translate(-563.333 -291.848)" fill="#003394"/>
      <path id="Path_326" data-name="Path 326" d="M555.953,333.685a30.865,30.865,0,0,0,4.7,8.544,30.039,30.039,0,0,0,2.018,2.315c4.492,4.63,21.06,10.153,26.906,12.851-.118-.26.12-4.069.087-5.635-3.424-1.855-20.278-6.393-23.1-9.076a26.426,26.426,0,0,1-6.219-9Z" transform="matrix(0.998, -0.07, 0.07, 0.998, -393.371, -286.411)" fill="#002770"/>
      <path id="Path_327" data-name="Path 327" d="M554.859,333.685c.127.6.281,1.185.455,1.778A43.227,43.227,0,0,0,565.8,353.757a49.08,49.08,0,0,0,8.605,7.016,68.921,68.921,0,0,0,8.192,4.533c2.81,1.339,10.732,3.375,13.65,4.442a41.384,41.384,0,0,1,.142-4.165s.054-1.02-.1-1.081c-6.055-2.478-19.386-6.412-24.389-10.612-.716-.6-1.416-1.221-2.09-1.87a38.971,38.971,0,0,1-10.567-17.614c-.072-.245-.133-.48-.194-.72Z" transform="matrix(0.998, -0.07, 0.07, 0.998, -400.425, -285.917)" fill="#002770"/>
    </g>
    <g id="Group_86" data-name="Group 86" transform="translate(941.678 425.87)">
      <g id="Group_85" data-name="Group 85">
        <circle id="Ellipse_22" data-name="Ellipse 22" cx="28.246" cy="28.246" r="28.246" transform="matrix(0.973, -0.229, 0.229, 0.973, 0, 12.936)" fill="#d1e0fb"/>
        <circle id="Ellipse_23" data-name="Ellipse 23" cx="23.943" cy="23.943" r="23.943" transform="translate(25.295 144.688)" fill="#d1e0fb"/>
        <path id="Path_138" data-name="Path 138" d="M662.283,273.532c9.934,45.895,18.025,117.317,18.662,127.6h47.888S728.617,298.3,716.77,258.712Z" transform="translate(-655.651 -232.503)" fill="#d1e0fb"/>
      </g>
    </g>
    <g id="Group_87" data-name="Group 87" transform="translate(861.685 571.722)">
      <path id="Path_140" data-name="Path 140" d="M685.668,292.669a23.944,23.944,0,1,0,28.985,17.507A23.945,23.945,0,0,0,685.668,292.669Z" transform="translate(-562.216 -291.966)" fill="#d1e0fb"/>
      <path id="Path_141" data-name="Path 141" d="M647.649,304.28a12.417,12.417,0,1,0,15.032,9.078A12.417,12.417,0,0,0,647.649,304.28Z" transform="translate(-638.207 -260.923)" fill="#fbc0a4"/>
      <path id="Path_142" data-name="Path 142" d="M640.831,334.814c15.816-2.461,44.521-16.27,71.8-27.614,26.276-10.927,42.21-15.039,42.21-15.039l11.477,46.492s-106.75,19.968-122.375,20.627Z" transform="translate(-631.388 -291.457)" fill="#d1e0fb"/>
    </g>
    <g id="Group_89" data-name="Group 89" transform="translate(802.99 593.337)">
      <g id="Group_88" data-name="Group 88" transform="translate(58.354 21.391)">
        <path id="Path_143" data-name="Path 143" d="M650.662,303.92a12.417,12.417,0,1,0,12.283,12.549A12.417,12.417,0,0,0,650.662,303.92Z" transform="translate(-638.112 -303.919)" fill="#d1e0fb"/>
      </g>
      <path id="Path_144" data-name="Path 144" d="M692.8,319.365c-11.071-1.72-32.694-22.3-38.167-21.361s-34.1,20.9-32.687,25.275,7.2,4.08,6.52,6.793-.6,5.652,5.534,7.491,22.937,9.513,32.964,7.1,22.731-.835,22.731-.835Z" transform="translate(-621.893 -297.973)" fill="#d1e0fb"/>
    </g>
    <g id="Group_90" data-name="Group 90" transform="translate(636.281 509.937)">
      <path id="Rectangle_25" data-name="Rectangle 25" d="M1.427,0H96.993a0,0,0,0,1,0,0V11.285a0,0,0,0,1,0,0H0a0,0,0,0,1,0,0V1.427A1.427,1.427,0,0,1,1.427,0Z" transform="translate(280.363 136.957) rotate(180)" fill="#fff"/>
      <path id="Path_145" data-name="Path 145" d="M595.8,411.751H766.622a4.469,4.469,0,0,0,4.526-5.134L756.724,285.061a11.885,11.885,0,0,0-11.488-10.268H584.683a8.935,8.935,0,0,0-9.052,10.268l14.424,121.555A5.941,5.941,0,0,0,595.8,411.751Z" transform="translate(-575.558 -274.793)" fill="#fff"/>
      <circle id="Ellipse_24" data-name="Ellipse 24" cx="10.254" cy="10.254" r="10.254" transform="translate(83.138 54.994)" fill="#b7d0ff"/>
    </g>
    <path id="Path_323" data-name="Path 323" d="M536.474,310.2a36.91,36.91,0,0,0-11.214,26.751c.034,17.108,11.352,41.682,11.352,41.682l7.369,12.841,3.117,5.427,21.062,56.236,58.117-17.768,5.989-1.671c-11.434-23.8-21.493-53.614-32.209-76.96-9.269-20.192-19.806-35.3-21.31-37.048a48.714,48.714,0,0,0-17.266-7.443C550.914,309.879,536.474,310.2,536.474,310.2Z" transform="translate(540.903 -29.893) rotate(17)" fill="#3b7fff"/>
    <path id="Path_324" data-name="Path 324" d="M564.691,324.688s12.623,2.146,17.048,5.007c7.619,4.916,13.281,8.723,13.9,9.545,1.732,2.315,47.793,82.771,61.248,106.293l5.989-1.671c-12.254-25.507-20.084-52.21-33.416-80.556s-18.531-31.222-19.913-32.829c-1.843-2.155-7.422-4.786-15.074-6.954-7.838-2.222-17.982-3.932-24.565-5.083C569.913,318.44,562.72,318.161,564.691,324.688Z" transform="translate(514.597 -48.56) rotate(17)" fill="#7daaff"/>
  </g>
</svg>
