<svg xmlns="http://www.w3.org/2000/svg" width="96" height="96" viewBox="0 0 96 96">
  <g id="integration" transform="translate(0.242)">
    <rect id="surface" width="96" height="96" rx="48" transform="translate(-0.242)" fill="rgba(69,121,245,0.03)"/>
    <g id="icon">
      <rect id="frame" width="96" height="96" transform="translate(-0.242)" fill="none"/>
      <g id="_-Product-Icons" data-name="ðŸ”-Product-Icons" transform="translate(25.758 26)">
        <g id="ic_fluent_developer_board_24_regular" transform="translate(2 2)">
          <path id="_Color" data-name="ðŸŽ¨Color" d="M28.5,2a1.5,1.5,0,0,1,1.486,1.3L30,3.5V8.15A7.509,7.509,0,0,1,35.85,14H40.5a1.5,1.5,0,0,1,.2,2.986L40.5,17H36v3.5h4.5a1.5,1.5,0,0,1,1.486,1.3L42,22a1.5,1.5,0,0,1-1.3,1.486l-.2.014H36V27h4.5a1.5,1.5,0,0,1,1.486,1.3l.014.2a1.5,1.5,0,0,1-1.3,1.486L40.5,30l-4.65,0A7.509,7.509,0,0,1,30,35.85V40.5a1.5,1.5,0,0,1-2.986.2L27,40.5V36H23.5l0,4.5a1.5,1.5,0,0,1-1.3,1.486L22,42a1.5,1.5,0,0,1-1.486-1.3l-.014-.2,0-4.5H17v4.5a1.5,1.5,0,0,1-1.3,1.486L15.5,42a1.5,1.5,0,0,1-1.486-1.3L14,40.5V35.85A7.509,7.509,0,0,1,8.15,30H3.5a1.5,1.5,0,0,1-.2-2.986L3.5,27,8,27V23.5l-4.5,0a1.5,1.5,0,0,1-1.486-1.3L2,22a1.5,1.5,0,0,1,1.3-1.486l.2-.014,4.5,0V17L3.5,17a1.5,1.5,0,0,1-1.486-1.3L2,15.5a1.5,1.5,0,0,1,1.3-1.486L3.5,14l4.65,0A7.509,7.509,0,0,1,14,8.15V3.5a1.5,1.5,0,0,1,2.986-.2L17,3.5V8h3.5l0-4.5a1.5,1.5,0,0,1,1.3-1.486L22,2a1.5,1.5,0,0,1,1.486,1.3l.014.2,0,4.5H27V3.5a1.5,1.5,0,0,1,1.1-1.446l.2-.04Zm0,9h-13A4.5,4.5,0,0,0,11,15.5v13A4.5,4.5,0,0,0,15.5,33h13A4.5,4.5,0,0,0,33,28.5v-13A4.5,4.5,0,0,0,28.5,11Zm-6.49,5.01a6,6,0,1,1-6,6A6,6,0,0,1,22.01,16.01Zm0,3a3,3,0,1,0,3,3A3,3,0,0,0,22.01,19.01Z" transform="translate(-2 -2)" fill="#377dff"/>
        </g>
      </g>
    </g>
  </g>
</svg>
