<svg xmlns="http://www.w3.org/2000/svg" width="96" height="96" viewBox="0 0 96 96">
  <g id="knowledge" transform="translate(0.242)">
    <rect id="surface" width="96" height="96" rx="48" transform="translate(-0.242)" fill="rgba(69,121,245,0.03)"/>
    <g id="icon">
      <rect id="frame" width="96" height="96" transform="translate(-0.242)" fill="none"/>
      <g id="_-System-Icons" data-name="ðŸ”-System-Icons" transform="translate(27.758 26)">
        <g id="ic_fluent_dictionary_24_regular" transform="translate(4 2)">
          <path id="_-Color" data-name="ðŸŽ¨-Color" d="M32,2a5,5,0,0,1,5,5V35.5A1.5,1.5,0,0,1,35.5,37H7a2,2,0,0,0,2,2H35.5a1.5,1.5,0,0,1,0,3H9a5,5,0,0,1-5-5V7A5,5,0,0,1,9,2Zm0,3H9A2,2,0,0,0,7,7V34H34V7A2,2,0,0,0,32,5ZM28,8a2,2,0,0,1,2,2v4a2,2,0,0,1-2,2H12a2,2,0,0,1-2-2V10a2,2,0,0,1,2-2Zm-1,3H13v2H27Z" transform="translate(-4 -2)" fill="#377dff"/>
        </g>
      </g>
    </g>
  </g>
</svg>
