<svg xmlns="http://www.w3.org/2000/svg" width="96" height="96" viewBox="0 0 96 96">
  <g id="lock" transform="translate(0.242)">
    <rect id="surface" width="96" height="96" rx="48" transform="translate(-0.242)" fill="rgba(69,121,245,0.03)"/>
    <g id="icon">
      <rect id="frame" width="96" height="96" transform="translate(-0.242)" fill="none"/>
      <g id="_-Product-Icons" data-name="ðŸ”-Product-Icons" transform="translate(28.155 24)">
        <g id="ic_fluent_lock_24_regular" transform="translate(0 0)">
          <path id="_-Color" data-name="ðŸŽ¨-Color" d="M23.2,2a9.6,9.6,0,0,1,9.6,9.6v4.8H37a5.4,5.4,0,0,1,5.4,5.4V44.6A5.4,5.4,0,0,1,37,50H9.4A5.4,5.4,0,0,1,4,44.6V21.8a5.4,5.4,0,0,1,5.4-5.4h4.2V11.6A9.6,9.6,0,0,1,23.2,2ZM37,20H9.4a1.8,1.8,0,0,0-1.8,1.8V44.6a1.8,1.8,0,0,0,1.8,1.8H37a1.8,1.8,0,0,0,1.8-1.8V21.8A1.8,1.8,0,0,0,37,20ZM23.2,29.6a3.6,3.6,0,1,1-3.6,3.6A3.6,3.6,0,0,1,23.2,29.6Zm0-24a6,6,0,0,0-6,6v4.8h12V11.6A6,6,0,0,0,23.2,5.6Z" transform="translate(-4 -2)" fill="#377dff"/>
        </g>
      </g>
    </g>
  </g>
</svg>
