<svg xmlns="http://www.w3.org/2000/svg" width="168.022" height="45" viewBox="0 0 168.022 45">
  <path id="Netflix_Logo_RGB" d="M0,0H6.724L15.94,25.467V0h7.076V42.189q-3.88.4-7.746.846L7.075,19.571V44.039Q3.531,44.5,0,45ZM159.947,43.912l-5.173-13.3-5.223,12.065q-3.712-.409-7.437-.772l8.981-20.75L142.869,0h7.655l4.6,11.837L160.25,0h7.772L158.8,21.3l9.217,23.7-.011,0Q163.988,44.427,159.947,43.912ZM29.819,0H49.473V7.016H36.894v9.5c2.89-.037,7-.079,9.555-.072v6.95c-3.2-.04-6.812.044-9.555.071V33.985q6.271-.492,12.578-.857v6.95q-9.872.567-19.654,1.455Zm99.942,40.827V0h7.076v41.41Q133.3,41.1,129.761,40.831Zm-25.044-1.386V0h7.075V32.78q6.084.282,12.135.684v6.95Q114.363,39.777,104.718,39.445ZM61.414,7.016H54.009V0H75.894V7.016h-7.4V39.29q-3.543.093-7.076.223ZM80.43,0h19.752V7.016H87.506V16.1H97.1v6.95H87.506V39.1H80.43Z" fill="#adb5bd"/>
</svg>
