<svg xmlns="http://www.w3.org/2000/svg" width="52.325" height="52" viewBox="0 0 52.325 52">
  <g id="paint" transform="translate(-1.914 -2)">
    <path id="Path_361" data-name="Path 361" d="M24.943,3.625a1.625,1.625,0,0,0-3.25,0V8.5a4.856,4.856,0,0,0-1.822,1.15L3.342,26.178a4.875,4.875,0,0,0,0,6.894L17.433,47.163a4.875,4.875,0,0,0,6.894,0L40.856,30.634a4.875,4.875,0,0,0,0-6.894L26.765,9.649A4.856,4.856,0,0,0,24.943,8.5Zm-3.25,8.8v4.2a1.625,1.625,0,0,0,3.25,0v-4.2L38.558,26.038A1.626,1.626,0,0,1,38.817,28H6.116ZM19.731,44.865,6.116,31.25H35.645L22.03,44.865A1.625,1.625,0,0,1,19.731,44.865Z" transform="translate(0)" fill="#377dff"/>
    <path id="Path_362" data-name="Path 362" d="M22.834,12.059a1.941,1.941,0,0,0-3.354,0l-5.37,9.206a8.159,8.159,0,1,0,14.094,0ZM16.917,22.9l4.24-7.268L25.4,22.9a4.908,4.908,0,1,1-8.48,0Z" transform="translate(24.911 20.466)" fill="#377dff"/>
  </g>
</svg>
