<svg xmlns="http://www.w3.org/2000/svg" width="50" height="50" viewBox="0 0 50 50">
  <g id="phoneDesktop" transform="translate(-2 -2)">
    <path id="Path_363" data-name="Path 363" d="M10.25,5.125H41.5A3.125,3.125,0,0,1,44.625,8.25V30.125A3.125,3.125,0,0,1,41.5,33.25H19.625v3.125H29v6.25H19.625V45.75H36.813a1.563,1.563,0,0,0,0-3.125H32.125v-6.25H41.5a6.25,6.25,0,0,0,6.25-6.25V8.25A6.25,6.25,0,0,0,41.5,2H10.25A6.25,6.25,0,0,0,4,8.25v9.375H7.125V8.25A3.125,3.125,0,0,1,10.25,5.125Z" transform="translate(4.25)" fill="#377dff"/>
    <path id="Path_364" data-name="Path 364" d="M5.563,15a1.563,1.563,0,0,0,0,3.125H8.688a1.563,1.563,0,0,0,0-3.125Z" transform="translate(4.25 27.625)" fill="#377dff"/>
    <path id="Path_365" data-name="Path 365" d="M2,12.688A4.687,4.687,0,0,1,6.688,8h9.375a4.687,4.687,0,0,1,4.688,4.688V34.563a4.688,4.688,0,0,1-4.687,4.688H6.688A4.688,4.688,0,0,1,2,34.563Zm4.688-1.562a1.563,1.563,0,0,0-1.562,1.563V34.563a1.563,1.563,0,0,0,1.563,1.563h9.375a1.563,1.563,0,0,0,1.563-1.562V12.688a1.563,1.563,0,0,0-1.562-1.562Z" transform="translate(0 12.75)" fill="#377dff"/>
  </g>
</svg>
