<svg xmlns="http://www.w3.org/2000/svg" width="39.997" height="40" viewBox="0 0 39.997 40">
  <g id="qus" transform="translate(-2 -2)">
    <g id="ic_fluent_chat_help_24_regular" transform="translate(2 2)">
      <path id="_-Color" data-name="🎨-Color" d="M22,2a20,20,0,1,1-9.174,37.773L5.174,41.907a2.5,2.5,0,0,1-3.08-3.08l2.135-7.645A20.005,20.005,0,0,1,22,2Zm0,3A17,17,0,0,0,7.146,30.273l.3.539L5.222,38.78l7.973-2.224.539.3A17,17,0,1,0,22,5Zm0,24a2,2,0,1,1-2,2A2,2,0,0,1,22,29Zm0-17.5A5.5,5.5,0,0,1,27.5,17a5.984,5.984,0,0,1-2.1,4.717l-.337.343C23.815,23.3,23.5,23.831,23.5,25a1.5,1.5,0,0,1-3,0,5.984,5.984,0,0,1,2.1-4.717l.337-.343C24.181,18.694,24.5,18.166,24.5,17a2.5,2.5,0,0,0-4.987-.256L19.5,17a1.5,1.5,0,0,1-3,0A5.5,5.5,0,0,1,22,11.5Z" transform="translate(-2 -2)" fill="#377dff"/>
    </g>
  </g>
</svg>
